<svg width="414" height="896" viewBox="0 0 414 896" fill="none" xmlns="http://www.w3.org/2000/svg">
<g opacity="0.39">
<path opacity="0.4" d="M145.615 289.517C147.163 295.079 150.421 299.828 155.05 303.262C159.523 306.584 165.042 308.393 170.583 308.351C171.954 308.379 172.554 309.347 172.618 309.453L172.646 309.495C172.731 309.63 172.788 309.764 172.823 309.891C172.929 310.273 172.816 310.591 172.703 310.796C170.738 313.509 170.123 316.909 171.021 320.124C172.632 325.926 178.667 329.332 184.469 327.721C187.282 326.937 189.621 325.106 191.056 322.569C192.49 320.032 192.851 317.078 192.066 314.273C191.508 312.266 190.398 310.471 188.851 309.086C187.367 307.757 185.55 306.852 183.593 306.478C183.55 306.443 183.459 306.301 183.402 306.11L183.388 306.054L183.36 305.976C183.183 305.503 183.529 304.789 184.109 304.407C188.702 301.524 192.342 297.135 194.349 292.068C196.426 286.825 196.723 281.171 195.204 275.723C193.359 269.101 189.049 263.589 183.063 260.211C177.077 256.833 170.13 255.985 163.509 257.829C156.887 259.674 151.375 263.984 147.997 269.97C144.619 275.949 143.771 282.896 145.615 289.517ZM193.183 276.281C195.967 286.281 191.769 297.121 182.978 302.633L182.964 302.641C181.607 303.524 180.929 305.1 181.31 306.471C181.324 306.534 181.346 306.591 181.367 306.655L181.374 306.676C181.473 307.036 181.897 308.245 183.098 308.52L183.141 308.527C186.49 309.149 189.133 311.566 190.038 314.831C190.667 317.099 190.377 319.481 189.218 321.537C188.059 323.587 186.172 325.071 183.897 325.7C179.211 327.007 174.335 324.251 173.028 319.566C172.3 316.951 172.809 314.195 174.42 311.983L174.462 311.912C174.738 311.453 175.155 310.506 174.83 309.326C174.745 309.015 174.611 308.704 174.434 308.414C174.307 308.195 173.141 306.287 170.597 306.245H170.576C159.926 306.329 150.491 299.213 147.629 288.945C144.138 276.387 151.509 263.327 164.067 259.836C176.632 256.352 189.692 263.723 193.183 276.281Z" fill="#66953F"/>
<path opacity="0.4" d="M238.842 367.889C237.358 362.554 231.811 359.423 226.482 360.907C221.147 362.391 218.016 367.939 219.5 373.267C220.984 378.603 226.532 381.734 231.86 380.25C237.196 378.765 240.326 373.218 238.842 367.889ZM221.521 372.709C220.348 368.49 222.821 364.102 227.04 362.928C231.259 361.755 235.648 364.229 236.821 368.448C237.994 372.667 235.521 377.055 231.302 378.228C227.083 379.401 222.694 376.928 221.521 372.709Z" fill="#66953F"/>
<path opacity="0.4" d="M268.615 308.075C268.007 305.884 266.636 303.969 264.75 302.683C264.559 302.499 264.432 302.308 264.375 302.118C264.297 301.842 264.382 301.609 264.403 301.552L264.417 301.531L264.46 301.418C264.622 300.966 264.841 300.867 264.926 300.831C265.407 300.626 266.149 300.881 266.375 300.98L266.417 301.001C270.142 302.98 274.424 303.446 278.488 302.315C287.187 299.899 292.289 290.853 289.872 282.154C287.456 273.454 278.41 268.352 269.71 270.769C267.562 271.362 265.527 272.415 263.795 273.815L263.788 273.786L263.506 274.055C263.117 274.387 262.735 274.74 262.382 275.101L262.326 275.15C260.63 276.733 259.075 277.412 257.697 277.171C255.753 276.832 254.637 274.726 254.623 274.705L253.174 271.85L253.054 272.564C250.693 269.702 247.633 267.483 244.192 266.133C239.803 264.416 235.068 264.175 230.517 265.447C224.941 266.995 220.306 270.627 217.465 275.659C214.617 280.698 213.91 286.542 215.458 292.111C217.005 297.687 220.638 302.323 225.676 305.163C230.715 308.004 236.56 308.718 242.128 307.17C245.436 306.252 248.496 304.549 250.997 302.238L251.004 302.407L252.722 300.457C253.237 299.87 253.732 299.573 254.199 299.559C254.672 299.552 255.054 299.856 255.153 299.948C255.343 300.21 255.471 300.45 255.534 300.676C255.746 301.446 255.061 301.913 254.99 301.955L253.647 302.732L253.69 302.768C250.354 305.114 248.863 309.298 249.958 313.255C251.386 318.393 256.736 321.417 261.873 319.983C267.032 318.562 270.05 313.22 268.615 308.075ZM251.994 312.704C251.004 309.156 252.7 305.425 256.029 303.842L257.577 303.107L257.131 302.761C257.534 302.174 257.895 301.27 257.577 300.132C257.435 299.63 257.174 299.128 256.792 298.627L256.736 298.563C256.63 298.45 255.683 297.468 254.213 297.482C253.775 297.489 253.344 297.581 252.919 297.757L252.891 297.079L251.167 299.093C248.644 302.026 245.33 304.132 241.591 305.17C231.203 308.061 220.397 301.962 217.5 291.567C214.61 281.178 220.708 270.373 231.104 267.483C239.436 265.165 248.171 268.5 252.821 275.779L254.29 278.083L254.354 277.701C255.252 278.535 256.255 279.051 257.336 279.242C258.933 279.525 260.601 279.072 262.29 277.892L262.333 278.189L263.81 276.648C265.576 274.811 267.81 273.475 270.276 272.79C277.859 270.677 285.745 275.136 287.851 282.719C289.964 290.302 285.505 298.188 277.922 300.301C274.354 301.298 270.587 300.874 267.322 299.107L265.569 298.167L265.626 298.669C265.082 298.634 264.58 298.711 264.128 298.895C263.605 299.114 262.905 299.595 262.509 300.662C262.375 300.959 262.092 301.736 262.361 302.683C262.531 303.284 262.877 303.828 263.4 304.294L263.442 304.337L263.513 304.386C265.018 305.397 266.113 306.909 266.594 308.64C267.718 312.669 265.35 316.852 261.322 317.976C257.301 319.092 253.11 316.732 251.994 312.704Z" fill="#66953F"/>
<path opacity="0.4" d="M189.444 369.897C186.801 365.967 182.787 363.296 178.137 362.384C171.932 361.169 165.494 363.381 161.339 368.158C160.858 368.518 160.018 368.893 158.76 368.646C158.59 368.61 158.42 368.568 158.258 368.518L158.201 368.497L158.138 368.49C158.018 368.462 156.378 368.045 155.742 365.529L155.417 364.257L155.332 364.299C154.519 362.116 153.205 360.116 151.502 358.512C149.424 356.547 146.838 355.218 144.025 354.667C135.82 353.056 127.835 358.42 126.223 366.625C125.517 370.207 126.139 373.932 127.962 377.105C129.736 380.193 132.527 382.546 135.842 383.769L135.615 384.08L137.396 384.285C137.396 384.285 137.573 384.306 137.834 384.355L137.919 384.377C138.039 384.405 138.152 384.433 138.273 384.447C139.679 384.779 142.124 385.649 142.81 387.783L142.852 387.924L142.93 388.037C142.972 388.136 143.481 389.451 141.827 392.157L141.05 393.422L141.333 393.479C141.191 393.889 141.085 394.306 141 394.716C139.919 400.228 143.523 405.585 149.028 406.666C154.534 407.747 159.897 404.143 160.979 398.638C161.219 397.422 161.233 396.178 161.014 394.942C161.056 394.412 161.339 394.023 161.883 393.747L161.897 393.74C161.904 393.74 162.547 393.415 163.275 393.564C163.466 393.599 163.65 393.67 163.827 393.762C166.039 395.493 168.561 396.645 171.318 397.182C180.914 399.069 190.25 392.793 192.137 383.197C193.041 378.554 192.087 373.826 189.444 369.897ZM171.713 395.125C169.254 394.645 167.014 393.613 165.049 392.066L165.007 392.03L164.936 391.988C164.54 391.755 164.116 391.592 163.671 391.507C162.272 391.232 161.141 391.769 160.929 391.882C159.678 392.511 158.936 393.641 158.908 394.991V395.083L158.929 395.21C159.12 396.228 159.113 397.246 158.922 398.242C158.06 402.616 153.806 405.479 149.431 404.616C145.057 403.761 142.202 399.5 143.057 395.125C143.184 394.475 143.41 393.818 143.714 393.175L144.018 392.546C145.714 389.387 145.029 387.55 144.767 387.041C143.728 383.981 140.527 382.822 138.711 382.398L138.682 382.391L138.612 382.377C138.548 382.363 138.485 382.348 138.421 382.334L138.258 382.299H138.244C138.202 382.292 138.159 382.285 138.124 382.278L137.806 382.193C131.135 380.462 126.951 373.797 128.28 367.027C129.665 359.953 136.548 355.332 143.622 356.724C148.505 357.685 152.371 361.261 153.7 366.066L154.046 367.303L154.124 367.268C155.24 369.861 157.276 370.441 157.7 370.533C157.926 370.596 158.152 370.653 158.371 370.695C160.47 371.105 161.904 370.398 162.738 369.734L162.802 369.684L162.88 369.6C166.547 365.331 172.25 363.36 177.756 364.441C181.854 365.246 185.395 367.6 187.727 371.063C190.059 374.532 190.893 378.695 190.087 382.794C188.405 391.253 180.172 396.786 171.713 395.125Z" fill="#66953F"/>
<path opacity="0.4" d="M274.693 746.72C280.021 747.497 284.805 749.963 288.53 753.836C292.134 757.589 294.452 762.486 295.067 767.624C295.257 768.896 296.219 769.334 296.332 769.383L296.374 769.404C296.508 769.461 296.636 769.503 296.763 769.525C297.13 769.581 297.413 769.44 297.59 769.305C299.872 767.164 302.946 766.196 306.035 766.648C311.596 767.461 315.462 772.648 314.649 778.21C314.253 780.902 312.833 783.284 310.649 784.909C308.466 786.535 305.78 787.213 303.081 786.824C301.158 786.542 299.363 785.722 297.9 784.457C296.494 783.242 295.448 781.659 294.869 779.892C294.826 779.856 294.692 779.786 294.508 779.765L294.452 779.757L294.374 779.736C293.915 779.623 293.293 780.033 293.01 780.613C290.876 785.206 287.244 789.093 282.784 791.545C278.17 794.082 272.968 795.022 267.746 794.259C261.4 793.333 255.789 789.983 251.958 784.839C248.128 779.694 246.524 773.362 247.45 767.016C248.375 760.67 251.725 755.059 256.87 751.228C262.008 747.391 268.34 745.787 274.693 746.72ZM268.022 792.315C277.611 793.715 287.152 788.563 291.229 779.772L291.236 779.757C291.894 778.401 293.272 777.588 294.586 777.779C294.643 777.786 294.706 777.8 294.763 777.807H294.784C295.13 777.856 296.296 778.111 296.699 779.185L296.713 779.22C297.681 782.245 300.233 784.415 303.363 784.867C305.54 785.185 307.709 784.634 309.476 783.319C311.243 782.005 312.388 780.083 312.706 777.906C313.363 773.411 310.239 769.221 305.745 768.563C303.243 768.196 300.741 768.987 298.89 770.74L298.833 770.79C298.438 771.101 297.611 771.602 296.48 771.433C296.183 771.39 295.879 771.298 295.59 771.171C295.371 771.079 293.47 770.224 293.13 767.871V767.85C291.957 757.977 284.261 750.076 274.41 748.635C262.375 746.875 251.146 755.235 249.386 767.277C247.626 779.333 255.987 790.556 268.022 792.315Z" fill="#66953F"/>
<path opacity="0.4" d="M143.311 240.225C138.202 239.476 134.647 234.713 135.396 229.597C136.145 224.487 140.909 220.933 146.025 221.682C151.134 222.431 154.689 227.194 153.94 232.31C153.184 237.427 148.421 240.975 143.311 240.225ZM145.735 223.625C141.693 223.032 137.919 225.844 137.326 229.886C136.732 233.929 139.545 237.703 143.587 238.296C147.629 238.89 151.403 236.077 151.997 232.035C152.59 227.985 149.778 224.212 145.735 223.625Z" fill="#66953F"/>
<path opacity="0.4" d="M203.896 203.703C202.476 203.499 201.168 202.792 200.214 201.711C200.087 201.605 199.953 201.541 199.833 201.52C199.656 201.492 199.515 201.562 199.479 201.583L199.465 201.598L199.394 201.633C199.126 201.767 199.084 201.916 199.069 201.972C198.978 202.29 199.197 202.735 199.281 202.87L199.296 202.891C200.829 205.06 201.465 207.71 201.076 210.339C200.25 215.972 194.999 219.887 189.366 219.067C183.734 218.24 179.819 212.989 180.639 207.357C180.844 205.965 181.338 204.608 182.073 203.414H182.059L182.201 203.216C182.377 202.947 182.568 202.679 182.766 202.431L182.794 202.396C183.649 201.209 183.953 200.184 183.692 199.336C183.324 198.149 181.918 197.612 181.904 197.612L180.003 196.933L180.441 196.806C178.462 195.555 176.83 193.817 175.713 191.767C174.293 189.153 173.763 186.213 174.194 183.266C174.724 179.655 176.625 176.468 179.55 174.284C182.476 172.1 186.08 171.196 189.684 171.719C193.296 172.249 196.483 174.15 198.667 177.075C200.843 180.001 201.755 183.605 201.225 187.209C200.914 189.351 200.087 191.4 198.843 193.153L198.949 193.145L197.868 194.375C197.543 194.743 197.395 195.082 197.423 195.372C197.451 195.668 197.677 195.88 197.741 195.937C197.917 196.036 198.08 196.099 198.228 196.121C198.73 196.191 198.963 195.725 198.985 195.683L199.366 194.778L199.387 194.799C200.596 192.531 203.09 191.259 205.656 191.633C208.984 192.121 211.302 195.223 210.815 198.559C210.327 201.88 207.225 204.191 203.896 203.703ZM205.465 192.933C203.168 192.594 200.97 193.958 200.242 196.163L199.903 197.188L199.656 196.933C199.317 197.23 198.787 197.527 198.045 197.421C197.72 197.372 197.387 197.251 197.041 197.053L196.992 197.025C196.914 196.969 196.221 196.453 196.115 195.534C196.08 195.259 196.108 194.983 196.186 194.707L195.755 194.743L196.879 193.499C198.518 191.69 199.571 189.449 199.924 187.026C200.907 180.291 196.236 174.015 189.501 173.033C182.766 172.051 176.491 176.729 175.508 183.457C174.717 188.856 177.501 194.057 182.427 196.389L183.981 197.131L183.748 197.202C184.342 197.697 184.745 198.283 184.95 198.947C185.254 199.923 185.105 201.004 184.497 202.156L184.688 202.163L183.84 203.209C182.83 204.46 182.172 205.965 181.939 207.562C181.218 212.474 184.632 217.053 189.55 217.774C194.462 218.495 199.048 215.081 199.762 210.163C200.101 207.852 199.536 205.527 198.172 203.619L197.444 202.594L197.762 202.587C197.698 202.248 197.705 201.93 197.783 201.633C197.875 201.287 198.122 200.813 198.758 200.481C198.935 200.375 199.394 200.135 200.009 200.227C200.398 200.283 200.765 200.46 201.098 200.75L201.126 200.778L201.161 200.82C201.91 201.682 202.942 202.248 204.073 202.41C206.68 202.792 209.111 200.976 209.493 198.368C209.889 195.746 208.08 193.315 205.465 192.933Z" fill="#66953F"/>
<path opacity="0.4" d="M21.0321 440.213C14.997 440.99 9.54836 443.675 5.27287 447.986C1.13164 452.156 -1.58207 457.64 -2.37356 463.427C-2.60677 464.855 -3.70921 465.335 -3.82935 465.385L-3.87881 465.406C-4.02722 465.47 -4.17563 465.512 -4.31697 465.533C-4.73392 465.59 -5.05193 465.42 -5.24274 465.272C-7.77977 462.813 -11.2355 461.661 -14.7266 462.113C-21.0232 462.926 -25.4824 468.706 -24.6768 475.003C-24.2811 478.056 -22.7263 480.77 -20.2953 482.649C-17.8643 484.529 -14.8396 485.349 -11.7867 484.953C-9.6101 484.671 -7.57482 483.78 -5.89289 482.381C-4.28163 481.031 -3.06612 479.271 -2.38063 477.286C-2.33116 477.25 -2.18275 477.173 -1.97074 477.144H-1.90714L-1.81527 477.123C-1.29938 477.003 -0.59976 477.484 -0.295881 478.141C2.02207 483.37 6.05023 487.822 11.0395 490.685C16.1983 493.639 22.0498 494.798 27.9648 494.041C35.1519 493.116 41.5474 489.448 45.9713 483.71C50.3952 477.971 52.3245 470.855 51.3987 463.668C50.473 456.481 46.8052 450.085 41.0669 445.661C35.3356 441.216 28.2192 439.287 21.0321 440.213ZM27.6821 491.829C16.8273 493.229 6.15623 487.222 1.72526 477.222L1.7182 477.208C1.00444 475.66 -0.536156 474.713 -2.02728 474.911C-2.09088 474.918 -2.16155 474.932 -2.22515 474.946H-2.24635C-2.6421 474.996 -3.96362 475.257 -4.43003 476.466L-4.44417 476.508C-5.59608 479.908 -8.51472 482.303 -12.0623 482.755C-14.5287 483.073 -16.9668 482.409 -18.9314 480.897C-20.896 479.377 -22.1539 477.187 -22.4719 474.72C-23.1291 469.632 -19.5179 464.961 -14.4368 464.304C-11.603 463.936 -8.7974 464.883 -6.74092 466.897L-6.67732 466.954C-6.23917 467.314 -5.3134 467.894 -4.03429 467.724C-3.69507 467.682 -3.35587 467.583 -3.02372 467.448C-2.77638 467.35 -0.613892 466.424 -0.182808 463.767L-0.175745 463.738C1.33658 452.615 10.1844 443.838 21.3289 442.403C34.954 440.651 47.4695 450.304 49.2221 463.929C50.9677 477.554 41.3072 490.07 27.6821 491.829Z" fill="#66953F"/>
<path opacity="0.4" d="M112.422 305.863C115.27 301.764 116.351 296.796 115.468 291.885C114.287 285.327 109.652 279.85 103.362 277.595C102.825 277.256 102.132 276.578 101.892 275.249C101.864 275.072 101.835 274.889 101.821 274.705V274.641L101.807 274.571C101.786 274.443 101.574 272.67 103.793 271.08L104.924 270.274L104.846 270.203C106.683 268.571 108.139 266.507 109.065 264.232C110.196 261.44 110.507 258.394 109.977 255.419C108.415 246.741 100.09 240.96 91.4117 242.522C87.6239 243.208 84.2035 245.236 81.7866 248.246C79.4404 251.172 78.1895 254.819 78.2602 258.536L77.8715 258.437L78.3521 260.26C78.3521 260.26 78.4015 260.437 78.451 260.719L78.4651 260.811C78.4863 260.939 78.5005 261.066 78.5287 261.186C78.7407 262.691 78.8255 265.433 76.9952 266.917L76.8751 267.016L76.7903 267.136C76.7055 267.214 75.6172 268.225 72.324 267.631L70.7834 267.355L70.8328 267.652C70.3806 267.673 69.9283 267.723 69.4901 267.801C63.667 268.846 59.7801 274.436 60.8261 280.26C61.872 286.083 67.4619 289.969 73.2921 288.917C74.5783 288.683 75.808 288.217 76.9387 287.538C77.4758 287.376 77.9705 287.503 78.4439 287.934L78.4581 287.948C78.4651 287.955 79.0234 288.464 79.1648 289.235C79.2001 289.439 79.2072 289.644 79.1789 289.849C78.3309 292.683 78.1612 295.602 78.6913 298.52C80.5145 308.662 90.2598 315.432 100.401 313.608C105.298 312.711 109.574 309.962 112.422 305.863ZM80.8467 298.118C80.3803 295.517 80.5287 292.923 81.299 290.408L81.3202 290.351L81.3343 290.266C81.412 289.793 81.405 289.312 81.3202 288.839C81.0516 287.362 80.0905 286.457 79.8997 286.288C78.8043 285.298 77.4051 285.008 76.0765 285.489L75.9846 285.524L75.8716 285.595C74.9458 286.167 73.9423 286.556 72.8893 286.747C68.2675 287.581 63.8224 284.493 62.9956 279.871C62.1688 275.249 65.25 270.811 69.8717 269.977C70.5572 269.85 71.2922 269.822 72.0413 269.878L72.7762 269.935C76.5288 270.394 78.0694 269.016 78.4722 268.564C81.0799 266.366 80.9951 262.783 80.7124 260.833L80.7053 260.797L80.6912 260.727C80.6771 260.656 80.67 260.592 80.6559 260.522L80.6276 260.345V260.331C80.6206 260.288 80.6135 260.246 80.5993 260.204L80.5569 259.857C79.7018 252.642 84.6416 245.985 91.8004 244.692C99.2773 243.349 106.45 248.331 107.8 255.808C108.733 260.974 106.69 266.14 102.486 269.285L101.404 270.097L101.475 270.154C99.355 272.246 99.567 274.465 99.6377 274.917C99.6589 275.164 99.6871 275.405 99.7295 275.638C100.132 277.857 101.376 278.995 102.344 279.56L102.415 279.602L102.528 279.645C108.118 281.609 112.245 286.45 113.298 292.273C114.075 296.605 113.121 300.987 110.613 304.598C108.104 308.216 104.33 310.633 99.9981 311.411C91.0443 313.029 82.458 307.064 80.8467 298.118Z" fill="#66953F"/>
<path opacity="0.4" d="M38.12 784.111C42.77 786.358 44.7276 791.969 42.4803 796.626C40.233 801.283 34.6218 803.234 29.9647 800.987C25.3147 798.739 23.3572 793.128 25.6044 788.471C27.8517 783.821 33.4629 781.863 38.12 784.111ZM30.8198 799.22C34.5017 801.001 38.9397 799.453 40.7206 795.771C42.5015 792.089 40.9538 787.651 37.2719 785.87C33.5901 784.089 29.152 785.637 27.3712 789.319C25.5903 793.001 27.138 797.439 30.8198 799.22Z" fill="#66953F"/>
<path opacity="0.4" d="M-37.9909 559.806C-36.5704 558.888 -34.8602 558.499 -33.1783 558.718C-32.9804 558.711 -32.8179 558.668 -32.6907 558.584C-32.514 558.471 -32.4433 558.294 -32.4292 558.251L-32.4221 558.23L-32.3939 558.146C-32.2596 557.813 -32.3373 557.651 -32.3656 557.587C-32.5352 557.241 -33.0723 557.008 -33.249 556.958L-33.2843 556.951C-36.3301 556.216 -38.952 554.358 -40.6551 551.722C-44.3016 546.082 -42.6762 538.521 -37.0368 534.874C-31.3974 531.228 -23.8358 532.853 -20.1893 538.492C-19.2918 539.885 -18.6769 541.475 -18.4013 543.107L-18.3872 543.093L-18.3589 543.383C-18.3024 543.757 -18.2671 544.146 -18.2529 544.52L-18.2459 544.577C-18.0833 546.294 -17.5533 547.439 -16.6699 547.99C-15.4191 548.761 -13.7584 548.139 -13.7442 548.139L-11.5252 547.262L-11.815 547.722C-9.08712 547.298 -6.28861 547.566 -3.70918 548.52C-0.415985 549.736 2.33305 551.934 4.24112 554.895C6.58028 558.513 7.36471 562.817 6.46014 567.029C5.55557 571.241 3.06801 574.845 -0.550259 577.177C-4.16853 579.516 -8.47935 580.3 -12.6842 579.396C-16.8961 578.491 -20.5002 576.004 -22.8323 572.385C-24.2174 570.244 -25.0796 567.785 -25.334 565.262L-25.4188 565.354L-25.4117 563.417C-25.4117 562.838 -25.5389 562.421 -25.7933 562.188C-26.0548 561.948 -26.4152 561.933 -26.5142 561.933C-26.7474 561.983 -26.9382 562.054 -27.0866 562.152C-27.5883 562.478 -27.4329 563.071 -27.4187 563.135L-27.0513 564.23H-27.0937C-26.4011 567.184 -27.6307 570.251 -30.196 571.905C-33.5316 574.06 -37.9979 573.099 -40.1533 569.764C-42.2876 566.428 -41.3265 561.962 -37.9909 559.806ZM-31.0158 570.59C-28.712 569.099 -27.8145 566.188 -28.8816 563.665L-29.3763 562.492L-28.9593 562.52C-28.8887 561.99 -28.6484 561.319 -27.9064 560.838C-27.5813 560.626 -27.1855 560.478 -26.7262 560.386L-26.6626 560.379C-26.5495 560.365 -25.5389 560.287 -24.7262 561.022C-24.486 561.241 -24.2881 561.509 -24.1467 561.813L-23.7934 561.446L-23.8217 563.417C-23.8641 566.301 -23.0655 569.106 -21.4896 571.53C-17.1363 578.272 -8.1048 580.216 -1.36295 575.855C5.3789 571.502 7.31524 562.47 2.96201 555.729C-0.529057 550.322 -7.0377 547.863 -13.2283 549.623L-15.1859 550.174L-15.0304 549.934C-15.942 549.955 -16.7547 549.75 -17.4544 549.319C-18.4861 548.69 -19.1858 547.609 -19.5462 546.118L-19.7158 546.259L-19.7794 544.669C-19.85 542.775 -20.4366 540.923 -21.4684 539.326C-24.6485 534.408 -31.2349 532.987 -36.1535 536.167C-41.072 539.347 -42.4925 545.934 -39.3124 550.852C-37.8142 553.17 -35.5104 554.796 -32.8249 555.425L-31.3833 555.771L-31.666 556.025C-31.3409 556.273 -31.1006 556.57 -30.9451 556.895C-30.7614 557.276 -30.613 557.891 -30.9169 558.676C-30.9875 558.909 -31.2137 559.481 -31.8285 559.877C-32.2172 560.131 -32.6836 560.259 -33.1995 560.259H-33.2419L-33.3055 560.251C-34.6411 560.068 -35.998 560.372 -37.1216 561.099C-39.7364 562.788 -40.4855 566.287 -38.7965 568.901C-37.1287 571.53 -33.6306 572.279 -31.0158 570.59Z" fill="#66953F"/>
<path opacity="0.4" d="M88.1539 539.199C88.5143 543.609 87.1292 547.891 84.2671 551.255C80.4438 555.75 74.4582 557.884 68.6421 556.81C68.0767 556.824 67.2499 557.043 66.4725 557.955C66.3665 558.075 66.2676 558.209 66.1757 558.343L66.1474 558.393L66.105 558.442C66.0344 558.534 65.0803 559.792 66.0768 561.997L66.5856 563.113L66.4937 563.135C67.1721 565.205 67.37 567.431 67.0661 569.587C66.6916 572.223 65.575 574.703 63.8436 576.738C58.7908 582.689 49.8369 583.41 43.8937 578.357C41.293 576.152 39.5828 573.071 39.0669 569.693C38.5722 566.407 39.2366 563.064 40.9468 560.244L40.6075 560.145L41.7877 558.958C41.7877 558.958 41.9008 558.845 42.0704 558.654L42.1198 558.591C42.1905 558.506 42.2612 558.414 42.3319 558.329C43.1658 557.269 44.4519 555.213 43.7029 553.255L43.6534 553.128L43.6463 553.001C43.618 552.902 43.2294 551.644 40.445 550.633L39.1376 550.16L39.3072 549.955C38.968 549.736 38.6429 549.495 38.3461 549.241C34.3533 545.849 33.8657 539.842 37.2578 535.849C40.6499 531.856 46.6568 531.369 50.6496 534.761C51.533 535.51 52.268 536.415 52.8263 537.439C53.1655 537.807 53.5966 537.92 54.1549 537.807H54.169C54.176 537.807 54.8333 537.665 55.2785 537.135C55.3986 536.994 55.4905 536.839 55.5612 536.669C56.1689 534.118 57.342 531.814 59.0452 529.814C64.9531 522.86 75.4263 522.012 82.3802 527.92C85.744 530.789 87.7935 534.789 88.1539 539.199ZM60.5292 531.086C59.0169 532.867 57.978 534.924 57.448 537.192L57.4339 537.249L57.4056 537.319C57.2502 537.722 57.0381 538.082 56.7625 538.407C55.9004 539.425 54.7626 539.687 54.5435 539.729C53.2644 539.998 52.063 539.602 51.2574 538.634L51.2009 538.57L51.1443 538.464C50.692 537.616 50.0984 536.867 49.3705 536.259C46.1975 533.567 41.4273 533.948 38.7348 537.121C36.0423 540.294 36.431 545.065 39.597 547.757C40.0704 548.16 40.6146 548.506 41.2153 548.796L41.8018 549.079C44.876 550.4 45.4484 552.139 45.5473 552.661C46.5649 555.502 44.9042 558.209 43.823 559.573L43.8018 559.594L43.7594 559.644C43.717 559.686 43.6817 559.735 43.6393 559.785L43.5474 559.905L43.5403 559.919C43.512 559.947 43.4908 559.976 43.4626 560.004L43.2788 560.251C39.4132 565.396 40.233 572.689 45.1374 576.859C50.261 581.212 57.9781 580.59 62.3313 575.466C65.3418 571.926 66.0768 567.064 64.2606 562.781L63.7941 561.679L63.8719 561.665C63.1793 559.121 64.3312 557.516 64.5856 557.198C64.7128 557.022 64.84 556.845 64.9814 556.69C66.2746 555.17 67.7304 554.852 68.7269 554.852H68.8046L68.9106 554.866C74.0695 555.849 79.3838 553.976 82.7759 549.983C85.2988 547.015 86.5143 543.234 86.2034 539.347C85.8854 535.461 84.0762 531.934 81.1081 529.411C74.974 524.203 65.7446 524.952 60.5292 531.086Z" fill="#66953F"/>
<path opacity="0.4" d="M348.719 216.601C343.306 219.385 339.094 223.759 336.535 229.265C334.062 234.593 333.369 240.671 334.592 246.381C334.853 247.808 333.984 248.628 333.885 248.72L333.843 248.755C333.723 248.868 333.596 248.96 333.475 249.024C333.101 249.214 332.748 249.165 332.514 249.094C329.292 247.646 325.652 247.737 322.522 249.342C316.875 252.246 314.642 259.2 317.547 264.847C318.953 267.581 321.341 269.603 324.267 270.542C327.193 271.482 330.316 271.228 333.051 269.822C335.002 268.818 336.62 267.285 337.716 265.398C338.776 263.582 339.313 261.511 339.284 259.412C339.313 259.363 339.433 259.235 339.624 259.136L339.68 259.115L339.758 259.066C340.203 258.783 341.023 258.988 341.532 259.504C345.489 263.631 350.789 266.458 356.45 267.447C362.309 268.472 368.209 267.574 373.51 264.847C379.955 261.532 384.718 255.907 386.937 249.01C389.149 242.112 388.548 234.763 385.234 228.318C381.919 221.873 376.294 217.109 369.397 214.89C362.513 212.686 355.164 213.286 348.719 216.601ZM372.52 262.882C362.789 267.885 350.705 265.864 343.143 257.97L343.129 257.956C341.927 256.748 340.161 256.38 338.825 257.066C338.769 257.094 338.705 257.129 338.648 257.165L338.627 257.179C338.274 257.363 337.122 258.055 337.087 259.348V259.391C337.157 262.981 335.228 266.225 332.048 267.857C329.836 268.995 327.32 269.2 324.953 268.444C322.585 267.687 320.656 266.048 319.525 263.836C317.179 259.278 318.981 253.653 323.546 251.306C326.09 249.999 329.044 249.935 331.666 251.13L331.744 251.165C332.274 251.356 333.341 251.582 334.493 250.995C334.797 250.84 335.087 250.635 335.348 250.388C335.546 250.211 337.263 248.6 336.769 245.964L336.762 245.935C334.408 234.96 339.737 223.703 349.729 218.565C361.948 212.283 377.001 217.109 383.283 229.328C389.566 241.547 384.732 256.599 372.52 262.882Z" fill="#66953F"/>
<path opacity="0.4" d="M88.0762 466.466C93.9912 468.565 100.535 465.392 102.669 459.385C104.804 453.378 101.729 446.778 95.8215 444.679C89.9065 442.58 83.3625 445.753 81.2283 451.76C79.0941 457.767 82.1611 464.367 88.0762 466.466ZM95.0088 446.954C99.6871 448.615 102.118 453.838 100.429 458.587C98.7402 463.336 93.5601 465.851 88.8818 464.191C84.2035 462.53 81.7724 457.307 83.4614 452.558C85.1504 447.802 90.3305 445.287 95.0088 446.954Z" fill="#66953F"/>
<path opacity="0.4" d="M212.384 844.144C211.755 839.19 209.239 834.781 205.288 831.721C200.023 827.636 192.914 826.675 186.731 829.205C186.102 829.318 185.141 829.268 184.066 828.442C183.925 828.329 183.784 828.208 183.649 828.081L183.607 828.032L183.55 827.989C183.451 827.904 182.102 826.731 182.695 824.067L182.992 822.717H182.886C183.162 820.272 182.858 817.771 182.024 815.453C180.999 812.626 179.19 810.145 176.802 808.294C169.834 802.895 159.777 804.167 154.371 811.135C152.011 814.181 150.831 817.975 151.05 821.827C151.262 825.572 152.774 829.113 155.318 831.834L154.965 832.017L156.548 833.049C156.548 833.049 156.703 833.148 156.929 833.325L157 833.381C157.099 833.459 157.198 833.544 157.297 833.615C158.463 834.59 160.357 836.569 159.989 838.901L159.968 839.056L159.989 839.197C159.982 839.311 159.841 840.795 157 842.554L155.671 843.381L155.905 843.572C155.58 843.89 155.283 844.229 155.007 844.582C151.382 849.261 152.237 856.01 156.908 859.635C161.586 863.26 168.335 862.405 171.961 857.727C172.759 856.695 173.36 855.529 173.742 854.264C174.031 853.784 174.484 853.55 175.12 853.55H175.141C175.148 853.55 175.904 853.557 176.519 854.031C176.681 854.158 176.823 854.307 176.943 854.476C178.208 857.155 180.038 859.43 182.377 861.246C190.525 867.564 202.292 866.073 208.603 857.925C211.677 853.996 213.013 849.098 212.384 844.144ZM183.741 859.515C181.657 857.897 180.031 855.868 178.915 853.48L178.886 853.423L178.844 853.345C178.582 852.943 178.257 852.582 177.883 852.293C176.696 851.374 175.374 851.346 175.127 851.346C173.65 851.346 172.42 852.059 171.749 853.317L171.706 853.402L171.664 853.529C171.36 854.575 170.872 855.536 170.222 856.377C167.346 860.087 161.982 860.773 158.265 857.89C154.548 855.006 153.876 849.649 156.753 845.932C157.184 845.381 157.7 844.865 158.3 844.406L158.88 843.961C161.975 841.791 162.201 839.735 162.194 839.134C162.661 835.756 160.194 833.148 158.682 831.897L158.654 831.876L158.597 831.834C158.541 831.791 158.491 831.749 158.435 831.707L158.3 831.593L158.286 831.586C158.251 831.558 158.215 831.53 158.18 831.509L157.919 831.283C152.456 826.491 151.664 818.237 156.124 812.492C160.781 806.492 169.445 805.389 175.452 810.046C179.6 813.262 181.543 818.463 180.526 823.615L180.264 824.943H180.356C180.18 827.919 181.826 829.424 182.179 829.714C182.363 829.883 182.547 830.039 182.731 830.187C184.512 831.572 186.201 831.579 187.296 831.346L187.381 831.332L187.494 831.29C192.964 829.007 199.274 829.841 203.946 833.466C207.423 836.166 209.649 840.053 210.2 844.42C210.751 848.787 209.571 853.105 206.871 856.589C201.296 863.769 190.921 865.084 183.741 859.515Z" fill="#66953F"/>
<path opacity="0.4" d="M297.568 52.4781C292.508 54.9233 288.523 58.8666 286.028 63.8912C283.618 68.7533 282.841 74.3503 283.837 79.6505C284.049 80.972 283.229 81.714 283.131 81.7918L283.095 81.8271C282.982 81.926 282.862 82.0108 282.749 82.0674C282.403 82.237 282.078 82.1804 281.858 82.1098C278.919 80.6964 275.555 80.6964 272.629 82.1098C267.35 84.6609 265.131 91.0282 267.682 96.3072C268.919 98.8655 271.074 100.788 273.753 101.721C276.431 102.653 279.321 102.491 281.88 101.254C283.703 100.371 285.229 98.9997 286.289 97.2754C287.307 95.6217 287.858 93.7278 287.88 91.7844C287.908 91.742 288.021 91.6289 288.198 91.5441L288.254 91.5229L288.325 91.4805C288.742 91.2261 289.491 91.4381 289.957 91.9257C293.519 95.8267 298.346 98.5545 303.547 99.6004C308.932 100.682 314.395 99.9891 319.356 97.5934C325.384 94.6818 329.914 89.6007 332.111 83.2829C334.316 76.965 333.928 70.1667 331.016 64.1386C328.104 58.1105 323.023 53.5806 316.705 51.3827C310.388 49.1779 303.589 49.5665 297.568 52.4781ZM318.472 95.756C309.37 100.152 298.268 98.0104 291.462 90.5406L291.455 90.5265C290.374 89.3816 288.749 89 287.498 89.6078C287.441 89.6361 287.385 89.6643 287.335 89.6926L287.314 89.6997C286.982 89.8622 285.901 90.47 285.844 91.6713V91.7137C285.83 95.0281 283.971 97.975 280.996 99.4167C278.933 100.413 276.601 100.547 274.431 99.7912C272.262 99.0351 270.523 97.4803 269.527 95.4168C267.463 91.1484 269.258 86.0037 273.527 83.9472C275.901 82.8023 278.636 82.8023 281.032 83.9684L281.109 84.0037C281.597 84.1875 282.579 84.4277 283.653 83.9048C283.936 83.7705 284.212 83.5868 284.459 83.3677C284.643 83.2122 286.268 81.7635 285.873 79.3183L285.865 79.2971C283.943 69.1066 289.13 58.8384 298.473 54.3226C309.9 48.8033 323.681 53.6088 329.2 65.0361C334.698 76.4492 329.892 90.2367 318.472 95.756Z" fill="#66953F"/>
<path opacity="0.4" d="M46.8547 74.9086C53.0171 71.9334 55.6106 64.4919 52.6355 58.3296C49.6603 52.1672 42.2188 49.5736 36.0564 52.5488C29.8941 55.524 27.3005 62.9655 30.2757 69.1278C33.2509 75.2902 40.6923 77.8838 46.8547 74.9086ZM37.1801 54.888C42.0563 52.5347 47.9359 54.5841 50.2963 59.4603C52.6496 64.3365 50.6002 70.2161 45.724 72.5765C40.8478 74.9298 34.9681 72.8804 32.6078 68.0042C30.2545 63.128 32.3039 57.2412 37.1801 54.888Z" fill="#66953F"/>
<path opacity="0.4" d="M-30.4929 700.488C-29.0088 701.449 -27.228 701.852 -25.4754 701.626C-25.2704 701.633 -25.1008 701.682 -24.9666 701.76C-24.7828 701.88 -24.7051 702.064 -24.6909 702.106L-24.6839 702.127L-24.6485 702.219C-24.5072 702.565 -24.5849 702.735 -24.6203 702.799C-24.797 703.159 -25.3552 703.399 -25.539 703.456L-25.5743 703.463C-28.7544 704.233 -31.4823 706.169 -33.2561 708.911C-37.0581 714.798 -35.362 722.678 -29.4823 726.48C-23.5956 730.282 -15.7159 728.586 -11.9139 722.706C-10.974 721.257 -10.3309 719.597 -10.0483 717.886L-10.0341 717.901L-10.0058 717.604C-9.94931 717.208 -9.91399 716.812 -9.89279 716.417L-9.88571 716.36C-9.71611 714.572 -9.16488 713.371 -8.23912 712.798C-6.9388 711.993 -5.20034 712.643 -5.18621 712.65L-2.87532 713.561L-3.17213 713.088C-0.32415 713.533 2.58743 713.251 5.287 712.254C8.72153 710.989 11.5907 708.692 13.5765 705.611C16.0146 701.837 16.8344 697.343 15.8945 692.954C14.9546 688.566 12.3539 684.806 8.58725 682.368C4.81351 679.93 0.318939 679.11 -4.06963 680.05C-8.4582 680.997 -12.2178 683.591 -14.6559 687.364C-16.1046 689.598 -17.0021 692.163 -17.2636 694.799L-17.3555 694.707L-17.3484 696.721C-17.3484 697.329 -17.4827 697.76 -17.7442 698C-18.0127 698.248 -18.3943 698.269 -18.4932 698.262C-18.7406 698.212 -18.9385 698.134 -19.0939 698.035C-19.6169 697.696 -19.4543 697.074 -19.4402 697.011L-19.0586 695.866H-19.101C-18.3731 692.785 -19.6593 689.59 -22.3377 687.859C-25.8146 685.612 -30.4717 686.615 -32.7261 690.092C-34.9733 693.583 -33.9698 698.24 -30.4929 700.488ZM-23.221 689.237C-20.8183 690.792 -19.8854 693.824 -20.9949 696.46L-21.5108 697.682L-21.0727 697.654C-21.002 698.205 -20.7476 698.912 -19.9773 699.406C-19.6381 699.626 -19.2282 699.781 -18.7477 699.88L-18.684 699.887C-18.5639 699.901 -17.5109 699.986 -16.6629 699.216C-16.4085 698.99 -16.2036 698.707 -16.0552 698.389L-15.6877 698.77L-15.723 696.714C-15.7725 693.711 -14.9315 690.785 -13.292 688.248C-8.74794 681.216 0.665215 679.195 7.69682 683.739C14.7284 688.283 16.7496 697.696 12.2055 704.728C8.55899 710.367 1.77473 712.925 -4.67739 711.095L-6.71973 710.516L-6.55719 710.77C-7.51123 710.749 -8.35926 710.968 -9.08008 711.413C-10.1543 712.07 -10.8892 713.194 -11.2638 714.749L-11.4475 714.6L-11.5111 716.254C-11.5888 718.233 -12.1966 720.155 -13.2778 721.823C-16.5922 726.953 -23.4684 728.43 -28.599 725.116C-33.7296 721.802 -35.2065 714.925 -31.8921 709.795C-30.3304 707.378 -27.9276 705.682 -25.122 705.025L-23.6168 704.664L-23.9065 704.403C-23.5744 704.141 -23.32 703.837 -23.1574 703.498C-22.9666 703.102 -22.8041 702.459 -23.1292 701.64C-23.1998 701.399 -23.4401 700.806 -24.0832 700.389C-24.486 700.127 -24.9736 699.993 -25.5178 699.993H-25.5672L-25.6308 700C-27.023 700.191 -28.4364 699.873 -29.6095 699.117C-32.3374 697.357 -33.1147 693.703 -31.3551 690.983C-29.5954 688.262 -25.9489 687.478 -23.221 689.237Z" fill="#66953F"/>
<path opacity="0.4" d="M379.962 155.889C380.336 151.295 378.895 146.829 375.912 143.309C371.927 138.617 365.687 136.398 359.623 137.515C359.037 137.493 358.174 137.274 357.362 136.32C357.256 136.193 357.15 136.059 357.051 135.917L357.015 135.868L356.973 135.818C356.895 135.727 355.899 134.412 356.938 132.108L357.468 130.942L357.376 130.921C358.082 128.766 358.294 126.441 357.969 124.193C357.581 121.437 356.415 118.858 354.606 116.731C349.334 110.526 339.998 109.77 333.793 115.042C331.087 117.346 329.299 120.554 328.762 124.073C328.239 127.501 328.938 130.985 330.719 133.925L330.366 134.023L331.596 135.26C331.596 135.26 331.716 135.38 331.885 135.578L331.935 135.642C332.006 135.734 332.083 135.826 332.161 135.91C333.03 137.013 334.366 139.161 333.596 141.203L333.546 141.338L333.532 141.472C333.504 141.578 333.094 142.885 330.196 143.938L328.84 144.433L329.016 144.645C328.663 144.871 328.324 145.126 328.02 145.387C323.857 148.928 323.348 155.196 326.882 159.358C330.415 163.521 336.684 164.03 340.853 160.489C341.772 159.705 342.535 158.765 343.122 157.698C343.475 157.316 343.927 157.196 344.507 157.316H344.521C344.528 157.316 345.214 157.465 345.68 158.016C345.8 158.157 345.899 158.327 345.977 158.503C346.613 161.161 347.835 163.57 349.609 165.655C355.772 172.906 366.69 173.796 373.948 167.627C377.446 164.659 379.587 160.482 379.962 155.889ZM351.157 164.348C349.581 162.489 348.493 160.348 347.941 157.98L347.927 157.924L347.899 157.846C347.736 157.429 347.517 157.048 347.228 156.708C346.33 155.648 345.143 155.373 344.917 155.33C343.581 155.048 342.33 155.465 341.489 156.468L341.433 156.539L341.369 156.645C340.896 157.535 340.274 158.305 339.525 158.949C336.217 161.761 331.242 161.358 328.43 158.051C325.617 154.744 326.027 149.769 329.334 146.963C329.829 146.546 330.394 146.179 331.023 145.875L331.631 145.578C334.839 144.2 335.433 142.391 335.539 141.84C336.599 138.878 334.868 136.052 333.737 134.631L333.716 134.61L333.673 134.561C333.631 134.511 333.588 134.462 333.553 134.412L333.454 134.285L333.447 134.271C333.419 134.235 333.391 134.207 333.369 134.179L333.179 133.925C329.15 128.561 330.006 120.95 335.122 116.604C340.465 112.059 348.514 112.717 353.051 118.059C356.189 121.755 356.959 126.822 355.058 131.289L354.57 132.44L354.655 132.455C353.934 135.112 355.128 136.78 355.397 137.112C355.531 137.295 355.666 137.479 355.807 137.642C357.157 139.232 358.676 139.557 359.715 139.557H359.793L359.906 139.536C365.284 138.511 370.824 140.461 374.365 144.624C377.001 147.719 378.266 151.663 377.941 155.712C377.608 159.761 375.722 163.443 372.626 166.079C366.217 171.521 356.591 170.743 351.157 164.348Z" fill="#66953F"/>
<path opacity="0.4" d="M282.466 191.69C285.95 187.584 287.915 182.573 288.148 177.202C288.374 172.008 286.876 166.793 283.943 162.539C283.244 161.464 283.675 160.489 283.731 160.383L283.752 160.341C283.816 160.206 283.887 160.093 283.964 159.994C284.205 159.712 284.509 159.634 284.728 159.613C287.851 159.712 290.805 158.404 292.819 156.03C296.459 151.74 295.929 145.295 291.646 141.663C289.569 139.903 286.933 139.055 284.219 139.274C281.505 139.493 279.039 140.765 277.279 142.836C276.021 144.32 275.216 146.115 274.954 148.037C274.707 149.882 274.961 151.754 275.696 153.465C275.689 153.514 275.633 153.655 275.512 153.804L275.47 153.846L275.421 153.91C275.152 154.291 274.41 154.397 273.816 154.15C269.18 152.108 263.887 151.599 258.919 152.701C253.782 153.846 249.259 156.574 245.838 160.602C241.69 165.493 239.69 171.711 240.213 178.107C240.736 184.503 243.718 190.312 248.609 194.46C253.499 198.608 259.718 200.608 266.113 200.085C272.509 199.562 278.318 196.58 282.466 191.69ZM247.329 161.874C253.598 154.482 264.17 152.051 273.032 155.952L273.046 155.959C274.438 156.546 276.007 156.242 276.869 155.231C276.905 155.189 276.947 155.139 276.982 155.09L276.996 155.076C277.223 154.807 277.936 153.846 277.519 152.779L277.505 152.744C276.233 149.832 276.714 146.525 278.763 144.108C280.184 142.433 282.177 141.408 284.374 141.225C286.565 141.048 288.699 141.734 290.374 143.154C293.837 146.094 294.261 151.302 291.328 154.765C289.689 156.694 287.293 157.747 284.742 157.662H284.664C284.162 157.691 283.215 157.86 282.473 158.737C282.275 158.97 282.113 159.231 281.979 159.521C281.873 159.733 281.01 161.634 282.318 163.62L282.332 163.641C287.978 171.825 287.42 182.842 280.982 190.432C273.11 199.711 259.16 200.848 249.881 192.976C240.602 185.103 239.457 171.153 247.329 161.874Z" fill="#66953F"/>
<path opacity="0.4" d="M78.4863 804.032C78.2248 805.721 78.5711 807.453 79.4616 808.916C79.5393 809.099 79.5605 809.269 79.5393 809.417C79.504 809.629 79.3767 809.764 79.3414 809.799L79.3273 809.813L79.2637 809.877C79.0163 810.138 78.8326 810.131 78.7619 810.131C78.3732 810.124 77.9422 809.721 77.815 809.58L77.7938 809.552C75.8645 807.05 73.0801 805.403 69.9495 804.916C63.2571 803.877 56.9604 808.477 55.9287 815.177C54.8898 821.869 59.4904 828.166 66.1899 829.198C67.8435 829.452 69.5608 829.367 71.1791 828.943L71.172 828.965L71.4476 828.873C71.8151 828.767 72.1826 828.639 72.536 828.505L72.5854 828.491C74.232 827.933 75.5111 827.954 76.3804 828.541C77.6029 829.374 77.716 831.162 77.716 831.176L77.822 833.579L78.1259 833.127C78.8538 835.812 80.2531 838.279 82.1965 840.265C84.6699 842.795 87.8288 844.427 91.334 844.971C95.6236 845.635 99.9133 844.59 103.418 842.031C106.924 839.466 109.22 835.692 109.885 831.403C110.549 827.113 109.503 822.823 106.938 819.318C104.372 815.813 100.599 813.516 96.3091 812.852C93.765 812.456 91.1502 812.675 88.7192 813.481L88.7687 813.361L86.9878 814.159C86.4508 814.4 86.0197 814.449 85.7017 814.315C85.3766 814.173 85.214 813.848 85.1716 813.756C85.1222 813.523 85.108 813.311 85.1363 813.142C85.2282 812.548 85.843 812.442 85.9066 812.435L87.0656 812.322L87.0444 812.287C90.0478 811.714 92.3658 809.318 92.8393 806.273C93.4541 802.315 90.7333 798.598 86.7758 797.983C82.8183 797.354 79.1011 800.075 78.4863 804.032ZM91.2845 806.018C90.8605 808.753 88.5496 810.774 85.7865 810.831L84.5003 810.859L84.6981 811.234C84.2388 811.509 83.7158 812.018 83.5816 812.894C83.525 813.283 83.5462 813.707 83.6522 814.166L83.6734 814.23C83.7088 814.336 84.0551 815.304 85.0656 815.749C85.3695 815.884 85.6946 815.954 86.0338 815.961L85.843 816.435L87.6451 815.594C90.281 814.364 93.1926 813.954 96.0759 814.4C104.076 815.643 109.574 823.155 108.33 831.155C107.093 839.155 99.574 844.653 91.5743 843.409C85.1575 842.413 80.2248 837.431 79.2919 831.014L78.9951 828.986L78.8326 829.226C78.4722 828.378 77.9492 827.714 77.2708 827.247C76.2673 826.562 74.9882 826.35 73.4617 826.632L73.5253 826.413L72.0413 827.007C70.2675 827.721 68.3241 827.94 66.4231 827.643C60.5858 826.738 56.5718 821.254 57.4763 815.417C58.3809 809.58 63.8648 805.566 69.7021 806.47C72.4512 806.895 74.8963 808.35 76.5782 810.569L77.4899 811.757L77.61 811.396C77.9704 811.587 78.3379 811.693 78.7054 811.707C79.1294 811.721 79.7584 811.608 80.3591 811C80.5428 810.838 80.9739 810.393 81.0869 809.665C81.1576 809.205 81.087 808.725 80.8749 808.244L80.8537 808.202L80.8184 808.145C80.1046 806.993 79.822 805.615 80.0269 804.28C80.5075 801.177 83.419 799.05 86.5214 799.531C89.6309 800.004 91.7651 802.916 91.2845 806.018Z" fill="#66953F"/>
<path opacity="0.4" d="M65.2712 378.214C64.6634 376.024 63.2924 374.108 61.4055 372.822C61.2147 372.638 61.0875 372.448 61.031 372.257C60.9533 371.981 61.0381 371.748 61.0593 371.692L61.0734 371.67L61.1158 371.557C61.2783 371.105 61.4974 371.006 61.5822 370.971C62.0628 370.766 62.8048 371.02 63.0309 371.119L63.0733 371.14C66.7976 373.119 71.0802 373.585 75.1437 372.455C83.8431 370.038 88.9454 360.992 86.5285 352.293C84.1116 343.593 75.0659 338.491 66.3665 340.908C64.2182 341.502 62.1829 342.555 60.4515 343.954L60.4444 343.926L60.1618 344.194C59.7731 344.526 59.3915 344.88 59.0381 345.24L58.9816 345.289C57.2855 346.872 55.7308 347.551 54.3528 347.311C52.4093 346.971 51.2928 344.865 51.2786 344.844L49.8299 341.989L49.7098 342.703C47.3494 339.841 44.2894 337.622 40.8478 336.272C36.4593 334.555 31.7244 334.315 27.1733 335.587C21.5975 337.134 16.9616 340.767 14.1207 345.798C11.2727 350.837 10.566 356.681 12.1137 362.25C13.6613 367.826 17.2937 372.462 22.3325 375.303C27.3712 378.144 33.2155 378.857 38.7843 377.31C42.0916 376.391 45.1516 374.688 47.6533 372.377L47.6604 372.547L49.3776 370.596C49.8935 370.01 50.3882 369.713 50.8546 369.699C51.3281 369.692 51.7097 369.995 51.8087 370.087C51.9995 370.349 52.1266 370.589 52.1903 370.815C52.4023 371.586 51.7168 372.052 51.6461 372.094L50.3034 372.872L50.3458 372.907C47.0102 375.253 45.5191 379.437 46.6144 383.394C48.042 388.532 53.3916 391.557 58.5293 390.122C63.6811 388.702 66.7057 383.352 65.2712 378.214ZM48.6427 382.836C47.6533 379.289 49.3493 375.557 52.6779 373.974L54.2255 373.239L53.7803 372.893C54.1831 372.306 54.5435 371.402 54.2255 370.264C54.0842 369.762 53.8227 369.26 53.4411 368.759L53.3846 368.695C53.2786 368.582 52.3316 367.6 50.8617 367.614C50.4235 367.621 49.9924 367.713 49.5684 367.89L49.5401 367.211L47.8158 369.225C45.2929 372.158 41.9785 374.264 38.2401 375.303C27.8517 378.193 17.0464 372.094 14.149 361.699C11.2586 351.31 17.3573 340.505 27.7528 337.615C36.0847 335.297 44.8194 338.632 49.4766 345.911L50.9465 348.215L51.0101 347.834C51.9076 348.667 52.9111 349.183 53.9923 349.374C55.5895 349.657 57.2573 349.205 58.9463 348.024L58.9887 348.321L60.4656 346.781C62.2324 344.943 64.4655 343.608 66.9319 342.922C74.5147 340.809 82.4014 345.268 84.5073 352.851C86.6204 360.434 82.1611 368.321 74.5783 370.434C71.0095 371.43 67.2428 371.006 63.9779 369.239L62.2253 368.299L62.2819 368.801C61.7377 368.766 61.2359 368.844 60.7836 369.027C60.2607 369.246 59.5611 369.727 59.1653 370.794C59.0311 371.091 58.7484 371.868 59.0169 372.815C59.1865 373.416 59.5328 373.96 60.0558 374.426L60.0982 374.469L60.1688 374.518C61.6741 375.529 62.7695 377.041 63.25 378.773C64.3737 382.801 62.0062 386.984 57.9781 388.108C53.957 389.232 49.7663 386.864 48.6427 382.836Z" fill="#66953F"/>
<path opacity="0.4" d="M38.0564 225.286C36.6359 225.081 35.3285 224.374 34.3745 223.293C34.2473 223.187 34.113 223.123 33.9929 223.102C33.8162 223.074 33.6749 223.145 33.6395 223.166L33.6254 223.18L33.5547 223.215C33.2862 223.35 33.2438 223.498 33.2297 223.555C33.1378 223.873 33.3569 224.318 33.4417 224.452L33.4558 224.473C34.9893 226.643 35.6254 229.293 35.2367 231.922C34.4098 237.554 29.1591 241.469 23.5268 240.649C17.8944 239.823 13.9793 234.572 14.7991 228.94C15.004 227.547 15.4987 226.19 16.2337 224.996H16.2196L16.3609 224.798C16.5376 224.53 16.7284 224.261 16.9263 224.014L16.9545 223.979C17.8096 222.791 18.1135 221.767 17.852 220.919C17.4845 219.731 16.0782 219.194 16.0641 219.194L14.1631 218.516L14.6012 218.389C12.6225 217.138 10.99 215.399 9.87345 213.35C8.45299 210.735 7.92298 207.795 8.35406 204.848C8.88408 201.237 10.7851 198.05 13.7108 195.866C16.6365 193.683 20.2406 192.778 23.8448 193.301C27.456 193.831 30.6432 195.732 32.8269 198.658C35.0035 201.583 35.9151 205.188 35.3851 208.792C35.0741 210.933 34.2473 212.982 33.0035 214.735L33.1095 214.728L32.0283 215.958C31.7032 216.325 31.5548 216.664 31.5831 216.954C31.6113 217.251 31.8375 217.463 31.9011 217.519C32.0777 217.618 32.2403 217.682 32.3887 217.703C32.8904 217.774 33.1237 217.307 33.1449 217.265L33.5265 216.36L33.5477 216.382C34.7561 214.113 37.2508 212.841 39.816 213.216C43.1446 213.703 45.4625 216.806 44.9749 220.141C44.4944 223.463 41.3849 225.774 38.0564 225.286ZM39.6323 214.516C37.3356 214.177 35.1377 215.541 34.4098 217.745L34.0706 218.77L33.8233 218.516C33.4841 218.813 32.9541 219.109 32.212 219.003C31.8869 218.954 31.5548 218.834 31.2085 218.636L31.1591 218.608C31.0813 218.551 30.3888 218.035 30.2828 217.117C30.2474 216.841 30.2757 216.565 30.3534 216.29L29.9223 216.325L31.046 215.081C32.6855 213.272 33.7385 211.032 34.0918 208.608C35.0741 201.873 30.4029 195.598 23.6681 194.615C16.9333 193.633 10.6579 198.311 9.67557 205.039C8.88408 210.438 11.6685 215.64 16.5941 217.972L18.1488 218.714L17.9156 218.784C18.5092 219.279 18.9121 219.866 19.117 220.53C19.4209 221.505 19.2725 222.586 18.6647 223.738L18.8555 223.745L18.0075 224.791C16.9969 226.042 16.3397 227.547 16.1065 229.144C15.3857 234.056 18.799 238.635 23.7176 239.356C28.6291 240.077 33.2155 236.664 33.9293 231.745C34.2685 229.434 33.7032 227.109 32.3392 225.201L31.6113 224.176L31.9293 224.169C31.8657 223.83 31.8728 223.512 31.9506 223.215C32.0424 222.869 32.2898 222.396 32.9258 222.063C33.1025 221.957 33.5618 221.717 34.1766 221.809C34.5653 221.866 34.9328 222.042 35.2649 222.332L35.2932 222.36L35.3285 222.403C36.0776 223.265 37.1094 223.83 38.2401 223.993C40.8478 224.374 43.2789 222.558 43.6605 219.95C44.0562 217.329 42.24 214.898 39.6323 214.516Z" fill="#66953F"/>
<path opacity="0.4" d="M235.344 241.618C241.259 243.716 247.803 240.543 249.937 234.536C252.071 228.53 248.997 221.929 243.089 219.83C237.181 217.731 230.63 220.904 228.496 226.911C226.355 232.918 229.429 239.512 235.344 241.618ZM242.277 222.099C246.955 223.759 249.386 228.982 247.697 233.731C246.008 238.48 240.828 240.996 236.15 239.335C231.471 237.674 229.04 232.452 230.729 227.703C232.418 222.954 237.598 220.438 242.277 222.099Z" fill="#66953F"/>
<path opacity="0.4" d="M-3.94948 645.627C1.96554 647.726 8.50953 644.553 10.6437 638.546C12.778 632.539 9.70383 625.939 3.79588 623.84C-2.11915 621.741 -8.66313 624.914 -10.7973 630.921C-12.9386 636.928 -9.86451 643.521 -3.94948 645.627ZM2.98317 626.108C7.66148 627.769 10.0925 632.991 8.40351 637.74C6.71451 642.497 1.53446 645.005 -3.14386 643.345C-7.82216 641.684 -10.2532 636.461 -8.56419 631.712C-6.87519 626.963 -1.69514 624.448 2.98317 626.108Z" fill="#66953F"/>
<path opacity="0.4" d="M245.28 832.413C251.195 834.512 257.739 831.339 259.873 825.332C262.008 819.325 258.933 812.725 253.025 810.626C247.11 808.527 240.566 811.7 238.432 817.707C236.291 823.714 239.365 830.314 245.28 832.413ZM252.213 812.901C256.891 814.562 259.322 819.785 257.633 824.534C255.944 829.283 250.764 831.798 246.086 830.138C241.407 828.477 238.976 823.254 240.665 818.505C242.354 813.756 247.534 811.234 252.213 812.901Z" fill="#66953F"/>
<path opacity="0.4" d="M382.167 111.572C388.082 113.671 394.626 110.498 396.76 104.491C398.894 98.4839 395.82 91.8833 389.912 89.7845C383.997 87.6856 377.453 90.8586 375.319 96.8655C373.177 102.872 376.252 109.473 382.167 111.572ZM389.099 92.06C393.778 93.7207 396.209 98.9432 394.52 103.692C392.831 108.441 387.651 110.957 382.972 109.296C378.294 107.636 375.863 102.413 377.552 97.6641C379.241 92.9081 384.421 90.3922 389.099 92.06Z" fill="#66953F"/>
<path opacity="0.4" d="M363.468 -7.35759C365.015 -1.79591 368.273 2.95306 372.902 6.3876C377.375 9.70905 382.894 11.5182 388.435 11.4758C389.806 11.5041 390.407 12.4722 390.47 12.5782L390.499 12.6206C390.583 12.7549 390.64 12.8892 390.675 13.0164C390.781 13.398 390.668 13.716 390.555 13.9209C388.59 16.6347 387.976 20.0338 388.873 23.2493C390.484 29.0512 396.52 32.4575 402.322 30.8463C405.134 30.0618 407.473 28.2315 408.908 25.6945C410.343 23.1574 410.703 20.2034 409.918 17.3979C409.36 15.3909 408.251 13.5959 406.703 12.2107C405.219 10.8822 403.403 9.9776 401.445 9.60305C401.403 9.56772 401.311 9.42638 401.254 9.23557L401.24 9.17903L401.212 9.1013C401.035 8.62782 401.382 7.91405 401.961 7.53244C406.555 4.64913 410.194 0.260567 412.201 -4.80642C414.279 -10.0501 414.576 -15.7036 413.056 -21.1522C411.212 -27.774 406.901 -33.2862 400.915 -36.6642C394.93 -40.0422 387.983 -40.8902 381.361 -39.0457C374.739 -37.2012 369.227 -32.8904 365.849 -26.9047C362.471 -20.919 361.63 -13.9793 363.468 -7.35759ZM411.035 -20.5869C413.819 -10.5872 409.622 0.253498 400.83 5.76571L400.816 5.77277C399.459 6.65614 398.781 8.23207 399.163 9.60305C399.177 9.66665 399.198 9.72319 399.219 9.78679L399.226 9.80799C399.325 10.1684 399.749 11.3768 400.951 11.6525L400.993 11.6595C404.343 12.2814 406.986 14.6983 407.89 17.9632C408.519 20.2317 408.23 22.6133 407.071 24.6698C405.912 26.7192 404.025 28.2032 401.749 28.8322C397.064 30.1396 392.188 27.3835 390.88 22.6981C390.152 20.0833 390.661 17.3272 392.272 15.1153L392.315 15.0446C392.59 14.5852 393.007 13.6383 392.682 12.4581C392.597 12.1471 392.463 11.8362 392.286 11.5465C392.159 11.3274 390.993 9.41931 388.449 9.37691H388.428C377.778 9.46171 368.344 2.34531 365.482 -7.92294C361.991 -20.4809 369.361 -33.5406 381.919 -37.0316C394.484 -40.5227 407.544 -33.1448 411.035 -20.5869Z" fill="#66953F"/>
<path opacity="0.4" d="M15.9652 888.581C15.3574 886.39 13.9864 884.475 12.0995 883.189C11.9087 883.005 11.7815 882.815 11.725 882.624C11.6473 882.348 11.7321 882.115 11.7533 882.058L11.7674 882.037L11.8098 881.924C11.9723 881.472 12.1914 881.373 12.2762 881.338C12.7568 881.133 13.4988 881.387 13.7249 881.486L13.7673 881.507C17.4916 883.486 21.7742 883.952 25.8377 882.822C34.5371 880.405 39.6394 871.359 37.2225 862.66C34.8056 853.96 25.7599 848.858 17.0605 851.275C14.9122 851.868 12.8769 852.921 11.1455 854.321L11.1384 854.292L10.8558 854.561C10.4671 854.893 10.0855 855.246 9.73211 855.607L9.67558 855.656C7.97951 857.239 6.42478 857.918 5.04673 857.677C3.10332 857.338 1.98676 855.232 1.97262 855.211L0.523895 852.356L0.403759 853.07C-1.9566 850.208 -5.01659 847.989 -8.45818 846.639C-12.8467 844.922 -17.5816 844.681 -22.1327 845.953C-27.7085 847.501 -32.3444 851.133 -35.1853 856.165C-38.0333 861.204 -38.74 867.048 -37.1923 872.617C-35.6447 878.193 -32.0123 882.829 -26.9735 885.67C-21.9348 888.51 -16.0905 889.224 -10.5217 887.677C-7.2144 886.758 -4.15442 885.055 -1.65272 882.744L-1.64566 882.913L0.0716133 880.963C0.587498 880.376 1.08218 880.08 1.5486 880.066C2.02208 880.058 2.4037 880.362 2.50264 880.454C2.69345 880.716 2.82065 880.956 2.88425 881.182C3.09626 881.952 2.41077 882.419 2.3401 882.461L0.997379 883.239L1.03978 883.274C-2.29581 885.62 -3.78693 889.804 -2.69156 893.761C-1.26404 898.899 4.08563 901.924 9.22329 900.489C14.3751 899.061 17.3997 893.719 15.9652 888.581ZM-0.663342 893.203C-1.65271 889.655 0.0433426 885.924 3.37187 884.341L4.91953 883.606L4.47431 883.26C4.87712 882.673 5.23754 881.769 4.91953 880.631C4.77819 880.129 4.51672 879.627 4.1351 879.126L4.07856 879.062C3.97256 878.949 3.0256 877.967 1.55568 877.981C1.11752 877.988 0.68644 878.08 0.262424 878.256L0.23415 877.578L-1.49018 879.592C-4.01308 882.525 -7.32746 884.631 -11.0659 885.67C-21.4543 888.56 -32.2596 882.461 -35.1571 872.073C-38.0474 861.684 -31.9487 850.879 -21.5532 847.989C-13.2213 845.671 -4.48656 849.006 0.170551 856.285L1.64047 858.589L1.70407 858.207C2.60157 859.041 3.60508 859.557 4.68632 859.748C6.28345 860.031 7.95124 859.578 9.64024 858.398L9.68265 858.695L11.1596 857.155C12.9264 855.317 15.1595 853.981 17.6259 853.296C25.2087 851.183 33.0954 855.642 35.2013 863.225C37.3144 870.808 32.8551 878.695 25.2723 880.808C21.7035 881.804 17.9368 881.38 14.6719 879.613L12.9193 878.673L12.9758 879.175C12.4317 879.14 11.9299 879.217 11.4776 879.401C10.9547 879.62 10.2551 880.101 9.85933 881.168C9.72505 881.465 9.44237 882.242 9.71091 883.189C9.88052 883.79 10.2268 884.334 10.7498 884.8L10.7922 884.843L10.8628 884.892C12.3681 885.903 13.4635 887.415 13.944 889.147C15.0677 893.175 12.7002 897.358 8.67207 898.482C4.64392 899.599 0.4603 897.231 -0.663342 893.203Z" fill="#66953F"/>
<path opacity="0.4" d="M329.921 871.303C328.5 871.098 327.193 870.391 326.239 869.31C326.112 869.204 325.977 869.14 325.857 869.119C325.681 869.091 325.539 869.161 325.504 869.183L325.49 869.197L325.419 869.232C325.151 869.366 325.108 869.515 325.094 869.571C325.002 869.889 325.221 870.334 325.306 870.469L325.32 870.49C326.854 872.659 327.49 875.31 327.101 877.938C326.274 883.571 321.023 887.486 315.391 886.666C309.759 885.839 305.844 880.589 306.663 874.956C306.868 873.564 307.363 872.207 308.098 871.013H308.084L308.225 870.815C308.402 870.546 308.593 870.278 308.791 870.031L308.819 869.995C309.674 868.808 309.978 867.783 309.716 866.935C309.349 865.748 307.943 865.211 307.928 865.211L306.027 864.532L306.466 864.405C304.487 863.154 302.854 861.416 301.738 859.367C300.317 856.752 299.787 853.812 300.218 850.865C300.748 847.254 302.649 844.067 305.575 841.883C308.501 839.699 312.105 838.795 315.709 839.318C319.32 839.848 322.508 841.749 324.691 844.674C326.868 847.6 327.779 851.204 327.249 854.808C326.938 856.95 326.112 858.999 324.868 860.752L324.974 860.745L323.893 861.974C323.568 862.342 323.419 862.681 323.447 862.971C323.476 863.267 323.702 863.48 323.765 863.536C323.942 863.635 324.105 863.699 324.253 863.72C324.755 863.79 324.988 863.324 325.009 863.282L325.391 862.377L325.412 862.398C326.62 860.13 329.115 858.858 331.68 859.232C335.009 859.72 337.327 862.822 336.839 866.158C336.352 869.472 333.249 871.783 329.921 871.303ZM331.49 860.526C329.193 860.186 326.995 861.55 326.267 863.755L325.928 864.78L325.681 864.525C325.341 864.822 324.811 865.119 324.069 865.013C323.744 864.964 323.412 864.843 323.066 864.646L323.016 864.617C322.939 864.561 322.246 864.045 322.14 863.126C322.105 862.851 322.133 862.575 322.211 862.299L321.78 862.335L322.903 861.091C324.543 859.282 325.596 857.042 325.949 854.618C326.931 847.883 322.26 841.607 315.525 840.625C308.791 839.643 302.515 844.321 301.533 851.049C300.741 856.448 303.526 861.649 308.451 863.981L310.006 864.723L309.773 864.794C310.366 865.289 310.769 865.875 310.974 866.54C311.278 867.515 311.13 868.596 310.522 869.748L310.713 869.755L309.865 870.801C308.854 872.052 308.197 873.557 307.964 875.154C307.243 880.066 310.656 884.645 315.575 885.366C320.486 886.087 325.073 882.673 325.787 877.755C326.126 875.444 325.56 873.119 324.197 871.211L323.469 870.186L323.787 870.179C323.723 869.84 323.73 869.522 323.808 869.225C323.9 868.879 324.147 868.405 324.783 868.073C324.96 867.967 325.419 867.727 326.034 867.819C326.423 867.875 326.79 868.052 327.122 868.342L327.15 868.37L327.186 868.412C327.935 869.274 328.967 869.84 330.097 870.002C332.705 870.384 335.136 868.568 335.518 865.96C335.913 863.338 334.104 860.907 331.49 860.526Z" fill="#66953F"/>
<path opacity="0.4" d="M251.902 907.436C255.386 903.33 257.35 898.319 257.584 892.949C257.81 887.754 256.312 882.539 253.379 878.285C252.679 877.211 253.11 876.235 253.167 876.129L253.188 876.087C253.252 875.953 253.322 875.84 253.4 875.741C253.64 875.458 253.944 875.38 254.163 875.359C257.287 875.458 260.241 874.15 262.255 871.776C265.894 867.486 265.364 861.041 261.082 857.409C259.004 855.649 256.368 854.801 253.654 855.02C250.941 855.239 248.474 856.512 246.715 858.582C245.457 860.066 244.651 861.861 244.39 863.783C244.142 865.628 244.397 867.501 245.132 869.211C245.125 869.26 245.068 869.402 244.948 869.55L244.906 869.592L244.856 869.656C244.588 870.038 243.846 870.144 243.252 869.896C238.616 867.854 233.323 867.345 228.355 868.448C223.217 869.592 218.694 872.32 215.274 876.348C211.126 881.239 209.126 887.458 209.649 893.853C210.172 900.249 213.154 906.058 218.044 910.206C222.934 914.354 229.153 916.354 235.549 915.831C241.945 915.308 247.754 912.326 251.902 907.436ZM216.765 877.62C223.033 870.228 233.606 867.797 242.467 871.698L242.482 871.705C243.874 872.292 245.443 871.988 246.305 870.977C246.34 870.935 246.383 870.886 246.418 870.836L246.432 870.822C246.658 870.553 247.372 869.592 246.955 868.525L246.941 868.49C245.669 865.578 246.149 862.271 248.199 859.854C249.619 858.179 251.612 857.155 253.81 856.971C256.001 856.794 258.135 857.48 259.81 858.9C263.273 861.84 263.697 867.048 260.764 870.511C259.124 872.44 256.729 873.493 254.177 873.409H254.1C253.598 873.437 252.651 873.606 251.909 874.483C251.711 874.716 251.549 874.977 251.414 875.267C251.308 875.479 250.446 877.38 251.753 879.366L251.768 879.387C257.414 887.571 256.856 898.588 250.418 906.178C242.545 915.457 228.595 916.594 219.316 908.722C210.037 900.842 208.892 886.892 216.765 877.62Z" fill="#66953F"/>
<path opacity="0.4" d="M331.709 29.8215C337.624 31.9204 344.168 28.7474 346.302 22.7405C348.436 16.7336 345.362 10.1331 339.454 8.03419C333.539 5.93531 326.995 9.10836 324.861 15.1153C322.727 21.1221 325.801 27.7227 331.709 29.8215ZM338.648 10.3027C343.327 11.9634 345.758 17.1859 344.069 21.9348C342.38 26.6909 337.2 29.1997 332.521 27.5389C327.843 25.8782 325.412 20.6557 327.101 15.9067C328.79 11.1578 333.97 8.64194 338.648 10.3027Z" fill="#66953F"/>
<path opacity="0.4" d="M122.054 899.987C127.969 902.086 134.513 898.913 136.647 892.906C138.781 886.899 135.707 880.299 129.799 878.2C123.884 876.101 117.34 879.274 115.206 885.281C113.072 891.288 116.146 897.888 122.054 899.987ZM128.994 880.475C133.672 882.136 136.103 887.358 134.414 892.107C132.725 896.863 127.545 899.372 122.867 897.712C118.188 896.051 115.757 890.828 117.446 886.079C119.135 881.323 124.315 878.808 128.994 880.475Z" fill="#66953F"/>
<path opacity="0.4" d="M264.227 -4.27642C265.145 -2.85597 265.534 -1.14577 265.315 0.536158C265.322 0.734032 265.364 0.89657 265.449 1.02377C265.562 1.20045 265.739 1.27112 265.781 1.28525L265.802 1.29232L265.887 1.32059C266.219 1.45486 266.382 1.37712 266.446 1.34885C266.792 1.17925 267.025 0.642159 267.075 0.465487L267.082 0.430152C267.817 -2.6157 269.675 -5.23753 272.311 -6.94066C277.951 -10.5872 285.512 -8.9618 289.159 -3.32239C292.805 2.31703 291.18 9.87864 285.54 13.5252C284.148 14.4227 282.558 15.0375 280.926 15.3131L280.94 15.3272L280.65 15.3555C280.276 15.412 279.887 15.4474 279.512 15.4615L279.456 15.4686C277.739 15.6311 276.594 16.1611 276.042 17.0445C275.272 18.2954 275.894 19.9561 275.894 19.9702L276.77 22.1892L276.311 21.8995C276.735 24.6273 276.466 27.4258 275.512 30.0053C274.297 33.2985 272.099 36.0475 269.138 37.9556C265.52 40.2947 261.216 41.0791 257.004 40.1746C252.792 39.27 249.188 36.7824 246.856 33.1642C244.517 29.5459 243.732 25.2351 244.637 21.0303C245.542 16.8184 248.029 13.2142 251.647 10.8821C253.789 9.49703 256.248 8.63486 258.771 8.38045L258.679 8.29564L260.615 8.30271C261.195 8.30271 261.612 8.17551 261.845 7.9211C262.085 7.65962 262.099 7.29921 262.099 7.20027C262.05 6.96706 261.972 6.77626 261.88 6.62785C261.555 6.1261 260.962 6.28157 260.898 6.29571L259.803 6.66319V6.62078C256.849 7.31334 253.782 6.0837 252.128 3.5184C249.973 0.182811 250.934 -4.28349 254.269 -6.4389C257.605 -8.57312 262.071 -7.61202 264.227 -4.27642ZM253.442 2.69157C254.934 4.99539 257.845 5.89289 260.368 4.82578L261.541 4.3311L261.513 4.74805C262.043 4.81872 262.714 5.05899 263.195 5.80102C263.407 6.1261 263.555 6.52185 263.647 6.9812L263.654 7.0448C263.668 7.15787 263.746 8.16844 263.011 8.98114C262.792 9.22141 262.523 9.41929 262.22 9.56063L262.587 9.91397L260.615 9.8857C257.732 9.8433 254.926 10.6419 252.503 12.2178C245.761 16.571 243.817 25.6026 248.178 32.3444C252.531 39.0863 261.562 41.0226 268.304 36.6694C273.71 33.1783 276.17 26.6697 274.41 20.479L273.859 18.5215L274.099 18.677C274.078 17.7653 274.283 16.9526 274.714 16.253C275.343 15.2212 276.424 14.5216 277.915 14.1612L277.774 13.9916L279.364 13.928C281.258 13.8573 283.109 13.2708 284.707 12.239C289.625 9.05887 291.046 2.4725 287.865 -2.44609C284.685 -7.36467 278.099 -8.78513 273.18 -5.60501C270.862 -4.10682 269.237 -1.803 268.608 0.882436L268.262 2.32409L268.007 2.04141C267.76 2.36649 267.463 2.60677 267.138 2.76224C266.757 2.94598 266.142 3.09439 265.357 2.79051C265.124 2.71984 264.552 2.4937 264.156 1.87887C263.901 1.49019 263.774 1.02378 263.774 0.507889V0.465487L263.781 0.401884C263.965 -0.933766 263.661 -2.29062 262.933 -3.41426C261.244 -6.02902 257.746 -6.77812 255.131 -5.08912C252.503 -3.42132 251.753 0.0768051 253.442 2.69157Z" fill="#66953F"/>
<path opacity="0.4" d="M99.3267 90.6183C98.3656 92.1024 97.9628 93.8833 98.1889 95.6359C98.1819 95.8408 98.1324 96.0104 98.0547 96.1447C97.9345 96.3284 97.7508 96.4062 97.7084 96.4203L97.6872 96.4274L97.5953 96.4627C97.249 96.604 97.0794 96.5263 97.0158 96.491C96.6554 96.3143 96.4151 95.756 96.3586 95.5723L96.3515 95.5369C95.5812 92.3568 93.6449 89.629 90.9029 87.8552C85.0162 84.0532 77.1365 85.7492 73.3345 91.6289C69.5325 97.5157 71.2286 105.395 77.1083 109.197C78.557 110.137 80.2177 110.78 81.9279 111.063L81.9138 111.077L82.2106 111.105C82.6063 111.162 83.0021 111.197 83.3978 111.218L83.4544 111.226C85.2423 111.395 86.4437 111.946 87.0161 112.872C87.8218 114.172 87.1716 115.911 87.1645 115.925L86.2529 118.236L86.7264 117.939C86.2812 120.787 86.5638 123.699 87.5603 126.398C88.8253 129.833 91.122 132.702 94.2032 134.688C97.9769 137.126 102.471 137.946 106.86 137.006C111.249 136.066 115.008 133.465 117.446 129.699C119.884 125.925 120.704 121.43 119.764 117.042C118.817 112.653 116.224 108.893 112.45 106.455C110.217 105.007 107.652 104.109 105.016 103.848L105.107 103.756L103.093 103.763C102.486 103.763 102.055 103.629 101.814 103.367C101.567 103.099 101.546 102.717 101.553 102.618C101.602 102.371 101.68 102.173 101.779 102.017C102.118 101.494 102.74 101.657 102.804 101.671L103.948 102.053V102.01C107.03 102.738 110.224 101.452 111.955 98.7736C114.203 95.2966 113.199 90.6395 109.722 88.3852C106.238 86.1379 101.574 87.1414 99.3267 90.6183ZM110.577 97.8902C109.023 100.293 105.991 101.226 103.355 100.116L102.132 99.6004L102.161 100.039C101.609 100.109 100.903 100.364 100.408 101.134C100.189 101.473 100.033 101.883 99.9345 102.364L99.9274 102.427C99.9133 102.547 99.8285 103.6 100.599 104.448C100.825 104.703 101.108 104.908 101.426 105.056L101.044 105.424L103.1 105.388C106.104 105.339 109.03 106.18 111.567 107.819C118.598 112.363 120.619 121.776 116.075 128.808C111.531 135.84 102.118 137.861 95.0865 133.317C89.4471 129.67 86.8889 122.886 88.7192 116.434L89.2987 114.392L89.0443 114.554C89.0655 113.6 88.8465 112.752 88.4012 112.031C87.744 110.957 86.6204 110.222 85.0656 109.847L85.214 109.664L83.5604 109.6C81.5816 109.522 79.6594 108.915 77.9916 107.833C72.861 104.519 71.3841 97.6429 74.6984 92.5123C78.0128 87.3817 84.889 85.9047 90.0196 89.2191C92.4365 90.7809 94.1325 93.1836 94.7897 95.9892L95.1501 97.4945L95.4116 97.2047C95.6731 97.5369 95.977 97.7913 96.3162 97.9538C96.7119 98.1446 97.355 98.3072 98.1748 97.9821C98.4151 97.9114 99.0087 97.6711 99.4257 97.028C99.6871 96.6252 99.8214 96.1376 99.8214 95.5935V95.544L99.8143 95.4804C99.6235 94.0882 99.9415 92.6748 100.698 91.5017C102.457 88.7739 106.111 87.9965 108.832 89.7562C111.553 91.5158 112.337 95.1624 110.577 97.8902Z" fill="#66953F"/>
<g opacity="0.39">
<path opacity="0.4" d="M170.42 67.9053C170.788 72.8874 173.077 77.4244 176.858 80.6823C181.911 85.0355 188.957 86.3641 195.26 84.1521C195.889 84.0744 196.85 84.1663 197.882 85.0496C198.016 85.1698 198.151 85.297 198.278 85.4312L198.32 85.4807L198.377 85.5231C198.476 85.615 199.762 86.8517 199.034 89.4806L198.667 90.8162L198.773 90.8233C198.377 93.2473 198.539 95.7702 199.26 98.1235C200.144 101 201.818 103.565 204.108 105.544C210.786 111.296 220.899 110.547 226.652 103.869C229.167 100.95 230.538 97.2189 230.524 93.3603C230.51 89.6078 229.182 85.9895 226.779 83.1486L227.146 82.979L225.62 81.8624C225.62 81.8624 225.471 81.7564 225.252 81.5727L225.189 81.5091C225.097 81.4243 225.005 81.3395 224.906 81.2617C223.79 80.23 222.002 78.1523 222.489 75.8414L222.525 75.6859L222.51 75.5446C222.525 75.4315 222.737 73.9616 225.669 72.3433L227.04 71.5871L226.814 71.3892C227.153 71.0854 227.471 70.7603 227.761 70.4281C231.627 65.9477 231.118 59.1564 226.638 55.2908C222.157 51.4252 215.366 51.934 211.5 56.4144C210.645 57.4038 209.988 58.5416 209.543 59.7853C209.225 60.2518 208.765 60.4567 208.129 60.4214H208.115C208.108 60.4214 207.352 60.379 206.758 59.8702C206.603 59.7359 206.468 59.5804 206.362 59.4037C205.239 56.6688 203.529 54.2943 201.281 52.358C193.472 45.6303 181.642 46.5066 174.915 54.3155C171.643 58.1034 170.046 62.9231 170.42 67.9053ZM199.819 54.0329C201.818 55.7572 203.338 57.8702 204.327 60.3083L204.348 60.3648L204.391 60.4426C204.631 60.8595 204.935 61.2341 205.295 61.545C206.433 62.5273 207.755 62.6262 208.002 62.6333C209.479 62.7111 210.744 62.0609 211.472 60.8383L211.521 60.7535L211.571 60.6263C211.924 59.6016 212.461 58.6688 213.161 57.8561C216.228 54.2943 221.62 53.8986 225.175 56.9656C228.729 60.0327 229.132 65.4248 226.065 68.9794C225.606 69.5094 225.062 69.9971 224.44 70.4211L223.839 70.838C220.638 72.845 220.306 74.8874 220.284 75.4881C219.641 78.8378 221.966 81.5656 223.415 82.9013L223.436 82.9225L223.493 82.9719C223.549 83.0143 223.599 83.0638 223.648 83.1133L223.775 83.2334L223.79 83.2476C223.825 83.2758 223.86 83.3041 223.888 83.3324L224.136 83.5726C229.344 88.6396 229.705 96.9221 224.956 102.427C219.995 108.18 211.281 108.83 205.529 103.869C201.55 100.441 199.882 95.1483 201.168 90.053L201.5 88.7386L201.409 88.7315C201.734 85.7705 200.172 84.1804 199.84 83.8765C199.67 83.6998 199.493 83.5302 199.31 83.3748C197.599 81.9048 195.918 81.8059 194.808 81.9755L194.723 81.9896L194.61 82.025C189.027 84.0179 182.773 82.8589 178.293 79.0003C174.957 76.1241 172.943 72.1242 172.618 67.7356C172.293 63.3471 173.692 59.0928 176.568 55.7572C182.505 48.874 192.935 48.1037 199.819 54.0329Z" fill="#66953F"/>
</g>
<path opacity="0.4" d="M154.187 117.162C152.088 123.077 155.261 129.621 161.268 131.755C167.275 133.889 173.876 130.815 175.975 124.907C178.074 118.999 174.901 112.448 168.894 110.314C162.887 108.18 156.293 111.247 154.187 117.162ZM173.706 124.094C172.045 128.773 166.823 131.204 162.074 129.515C157.318 127.826 154.809 122.646 156.47 117.967C158.131 113.289 163.353 110.858 168.102 112.547C172.851 114.243 175.367 119.423 173.706 124.094Z" fill="#66953F"/>
<path opacity="0.4" d="M-45.0861 155.281C-43.1427 156.461 -40.8318 156.927 -38.5845 156.574C-38.316 156.574 -38.0969 156.631 -37.9273 156.737C-37.68 156.885 -37.581 157.118 -37.5598 157.175L-37.5528 157.203L-37.5104 157.316C-37.3196 157.761 -37.4114 157.98 -37.4538 158.058C-37.6658 158.532 -38.3796 158.864 -38.6128 158.942L-38.6552 158.956C-42.7258 160.051 -46.1744 162.638 -48.3652 166.235C-53.0647 173.945 -50.6195 184.036 -42.9095 188.736C-35.1995 193.435 -25.1079 190.99 -20.4084 183.28C-19.2494 181.379 -18.4791 179.217 -18.1682 177.012L-18.147 177.026L-18.1187 176.637C-18.0622 176.128 -18.0268 175.612 -18.0127 175.111L-18.0056 175.04C-17.8502 172.729 -17.1717 171.167 -16.0057 170.397C-14.3591 169.316 -12.0977 170.093 -12.0765 170.1L-9.06596 171.196L-9.46877 170.595C-5.78689 171.075 -2.04142 170.609 1.39311 169.238C5.77461 167.493 9.38582 164.44 11.8522 160.397C14.8627 155.458 15.7743 149.641 14.4104 144.023C13.0465 138.398 9.57663 133.649 4.63684 130.631C-0.302944 127.621 -6.11904 126.709 -11.7443 128.073C-17.3625 129.437 -22.1186 132.907 -25.1291 137.847C-26.917 140.779 -27.9841 144.108 -28.2385 147.507L-28.3587 147.387L-28.288 149.988C-28.2668 150.765 -28.4223 151.323 -28.7544 151.648C-29.0936 151.981 -29.5813 152.016 -29.7155 152.016C-30.0335 151.959 -30.295 151.868 -30.4929 151.74C-31.1784 151.323 -30.9947 150.518 -30.9735 150.433L-30.5212 148.949L-30.5777 148.956C-29.7509 144.963 -31.5105 140.885 -35.0157 138.751C-39.5739 135.974 -45.5384 137.423 -48.3157 141.974C-51.093 146.539 -49.6443 152.504 -45.0861 155.281ZM-36.104 140.546C-32.9593 142.461 -31.6519 146.348 -32.9946 149.776L-33.6236 151.373L-33.0582 151.316C-32.9522 152.023 -32.5989 152.92 -31.5883 153.542C-31.1431 153.811 -30.613 154.002 -29.9911 154.108L-29.9063 154.115C-29.7509 154.129 -28.387 154.2 -27.3269 153.182C-27.0089 152.878 -26.7545 152.518 -26.5707 152.101L-26.0831 152.581L-26.1962 149.931C-26.3587 146.066 -25.3764 142.264 -23.3553 138.949C-17.7371 129.741 -5.68089 126.815 3.52733 132.426C12.7355 138.038 15.6613 150.101 10.043 159.309C5.54141 166.694 -3.11559 170.22 -11.4899 168.086L-14.14 167.408L-13.928 167.733C-15.1576 167.74 -16.2389 168.044 -17.1576 168.644C-18.5145 169.528 -19.4261 170.998 -19.8572 173.012L-20.0974 172.821L-20.1257 174.955C-20.161 177.506 -20.8819 180.008 -22.2105 182.192C-26.3093 188.912 -35.1076 191.047 -41.8283 186.948C-48.5489 182.849 -50.6831 174.051 -46.5843 167.33C-44.655 164.164 -41.6163 161.903 -38.0263 160.956L-36.097 160.447L-36.4786 160.115C-36.0546 159.768 -35.7436 159.366 -35.5387 158.927C-35.3055 158.411 -35.1217 157.578 -35.5599 156.532C-35.6659 156.221 -35.991 155.465 -36.8319 154.949C-37.362 154.624 -37.9909 154.468 -38.6906 154.482H-38.7542L-38.839 154.496C-40.6269 154.786 -42.4572 154.433 -43.9978 153.493C-47.5666 151.316 -48.6973 146.645 -46.5207 143.076C-44.3441 139.5 -39.6729 138.37 -36.104 140.546Z" fill="#66953F"/>
<path opacity="0.4" d="M111.687 49.0295C116.28 49.4041 120.747 47.9624 124.266 44.9802C128.958 40.9944 131.177 34.7543 130.061 28.6909C130.082 28.1043 130.301 27.2422 131.255 26.4295C131.382 26.3235 131.517 26.2174 131.658 26.1185L131.707 26.0832L131.757 26.0408C131.849 25.963 133.163 24.9666 135.467 26.0054L136.633 26.5355L136.654 26.4436C138.81 27.1503 141.135 27.3623 143.382 27.0372C146.138 26.6485 148.717 25.4825 150.845 23.6733C157.049 18.4014 157.806 9.066 152.534 2.86123C150.23 0.154598 147.021 -1.63334 143.502 -2.17042C140.075 -2.69338 136.591 -1.99375 133.651 -0.212884L133.552 -0.56623L132.315 0.663417C132.315 0.663417 132.195 0.783555 131.997 0.953161L131.934 1.00263C131.842 1.0733 131.75 1.15103 131.665 1.22877C130.563 2.098 128.414 3.43365 126.372 2.66336L126.238 2.61389L126.103 2.59976C125.997 2.57149 124.69 2.16161 123.637 -0.735836L123.142 -2.09269L122.93 -1.91601C122.704 -2.26936 122.45 -2.60857 122.188 -2.91245C118.648 -7.07488 112.379 -7.5837 108.217 -4.05023C104.054 -0.516762 103.546 5.75161 107.086 9.9211C107.871 10.8398 108.811 11.603 109.878 12.1896C110.259 12.5429 110.379 12.9952 110.259 13.5747V13.5888C110.259 13.5959 110.111 14.2814 109.56 14.7478C109.418 14.868 109.249 14.9669 109.072 15.0446C106.415 15.6807 104.005 16.9032 101.92 18.677C94.6696 24.8394 93.7792 35.7578 99.9486 43.0156C102.917 46.5137 107.093 48.655 111.687 49.0295ZM103.228 20.2176C105.086 18.6417 107.228 17.5534 109.595 17.0022L109.651 16.988L109.729 16.9598C110.146 16.7972 110.528 16.5782 110.867 16.2884C111.927 15.3909 112.203 14.2037 112.245 13.9775C112.528 12.6419 112.111 11.391 111.107 10.5501L111.037 10.4935L110.931 10.4299C110.04 9.95643 109.27 9.33454 108.627 8.58545C105.814 5.27812 106.217 0.303002 109.524 -2.50964C112.832 -5.32228 117.807 -4.91239 120.619 -1.60507C121.036 -1.11038 121.404 -0.545028 121.708 0.0839291L122.004 0.691686C123.383 3.90007 125.192 4.4937 125.743 4.5997C128.704 5.65974 131.531 3.92834 132.951 2.79763L132.972 2.77643L133.022 2.73403C133.071 2.69163 133.121 2.64922 133.17 2.61389L133.297 2.51495L133.312 2.50789C133.347 2.47962 133.375 2.45135 133.403 2.43015L133.658 2.23934C139.022 -1.78881 146.633 -0.93371 150.979 4.18275C155.523 9.52535 154.866 17.5746 149.523 22.1116C145.827 25.2493 140.76 26.0196 136.294 24.1186L135.142 23.631L135.128 23.7158C132.471 22.9949 130.803 24.1892 130.471 24.4578C130.287 24.5921 130.103 24.7263 129.941 24.8677C128.351 26.2174 128.026 27.7368 128.026 28.7757V28.8534L128.047 28.9665C129.071 34.3444 127.121 39.8849 122.959 43.4254C119.863 46.0614 115.92 47.3264 111.871 47.0013C107.821 46.6692 104.139 44.7823 101.503 41.687C96.0477 35.2843 96.8321 25.6592 103.228 20.2176Z" fill="#66953F"/>
<path opacity="0.4" d="M60.4232 186.177C61.8437 185.259 63.5539 184.87 65.2358 185.089C65.4337 185.082 65.5962 185.04 65.7234 184.955C65.9001 184.842 65.9708 184.665 65.9849 184.623L65.992 184.602L66.0202 184.517C66.1545 184.185 66.0768 184.022 66.0485 183.958C65.886 183.612 65.3418 183.379 65.1651 183.329L65.1298 183.322C62.084 182.587 59.4621 180.729 57.759 178.093C54.1125 172.453 55.7378 164.892 61.3773 161.245C67.0167 157.599 74.5783 159.224 78.2248 164.864C79.1223 166.256 79.7372 167.846 80.0128 169.478L80.0269 169.464L80.0552 169.754C80.1117 170.128 80.147 170.517 80.1612 170.892L80.1683 170.948C80.3308 172.665 80.8608 173.81 81.7442 174.362C82.995 175.132 84.6558 174.51 84.6699 174.51L86.8889 173.634L86.5991 174.093C89.327 173.669 92.1255 173.938 94.7049 174.892C97.9981 176.107 100.747 178.305 102.655 181.266C104.994 184.884 105.779 189.188 104.874 193.4C103.97 197.612 101.482 201.216 97.8638 203.548C94.2456 205.887 89.9348 206.672 85.7299 205.767C81.518 204.862 77.9139 202.375 75.5818 198.757C74.1967 196.615 73.3345 194.156 73.0801 191.633L72.9953 191.725L73.0024 189.789C73.0024 189.209 72.8752 188.792 72.6208 188.559C72.3593 188.319 71.9989 188.305 71.8999 188.305C71.6667 188.354 71.4759 188.432 71.3275 188.524C70.8258 188.849 70.9812 189.442 70.9954 189.506L71.3628 190.601H71.3204C72.013 193.555 70.7834 196.622 68.2181 198.276C64.8825 200.432 60.4162 199.47 58.2608 196.135C56.1336 192.799 57.0876 188.333 60.4232 186.177ZM67.3983 196.962C69.7021 195.471 70.5996 192.559 69.5325 190.036L69.0378 188.863L69.4548 188.891C69.5254 188.361 69.7657 187.69 70.5077 187.209C70.8328 186.997 71.2286 186.849 71.6879 186.757L71.7515 186.75C71.8646 186.736 72.8752 186.658 73.6879 187.393C73.9281 187.612 74.126 187.881 74.2674 188.185L74.6207 187.817L74.5924 189.789C74.55 192.672 75.3486 195.478 76.9245 197.902C81.2777 204.643 90.3093 206.587 97.0511 202.227C103.793 197.873 105.729 188.842 101.376 182.1C97.885 176.694 91.3764 174.234 85.1858 175.994L83.2282 176.545L83.3837 176.305C82.4721 176.326 81.6594 176.121 80.9597 175.69C79.928 175.061 79.2283 173.98 78.8679 172.489L78.6983 172.63L78.6347 171.04C78.5641 169.146 77.9775 167.295 76.9457 165.697C73.7656 160.779 67.1792 159.358 62.2606 162.539C57.342 165.719 55.9216 172.305 59.1017 177.224C60.5999 179.542 62.9037 181.167 65.5892 181.796L67.0308 182.142L66.7481 182.397C67.0732 182.644 67.3135 182.941 67.469 183.266C67.6527 183.648 67.8011 184.262 67.4972 185.047C67.4266 185.28 67.2004 185.852 66.5856 186.248C66.1969 186.503 65.7305 186.63 65.2146 186.63H65.1722L65.1086 186.623C63.773 186.439 62.4161 186.743 61.2925 187.471C58.6777 189.16 57.9286 192.658 59.6176 195.273C61.2854 197.902 64.7835 198.651 67.3983 196.962Z" fill="#66953F"/>
<path opacity="0.4" d="M26.4737 16.8113C26.8341 21.2211 25.449 25.5037 22.5869 28.8675C18.7637 33.3621 12.778 35.4963 6.96188 34.4221C6.39652 34.4363 5.56969 34.6553 4.79232 35.567C4.68632 35.6871 4.58738 35.8214 4.49551 35.9557L4.46725 36.0051L4.42485 36.0546C4.35418 36.1465 3.40014 37.4044 4.39658 39.6093L4.9054 40.7258L4.81353 40.747C5.49196 42.8176 5.68983 45.0437 5.38595 47.1991C5.01141 49.8351 3.89483 52.3156 2.16343 54.3509C-2.88942 60.3012 -11.8432 61.0221 -17.7865 55.9692C-20.3872 53.7643 -22.0974 50.6831 -22.6132 47.3051C-23.1079 44.019 -22.4436 40.6764 -20.7334 37.8567L-21.0726 37.7577L-19.8925 36.5705C-19.8925 36.5705 -19.7794 36.4574 -19.6098 36.2666L-19.5603 36.203C-19.4897 36.1182 -19.419 36.0263 -19.3483 35.9415C-18.5144 34.8815 -17.2282 32.825 -17.9773 30.8675L-18.0268 30.7403L-18.0339 30.613C-18.0621 30.5141 -18.4508 29.2562 -21.2352 28.2456L-22.5426 27.7721L-22.373 27.5672C-22.7122 27.3481 -23.0373 27.1079 -23.3341 26.8534C-27.3269 23.4613 -27.8145 17.4544 -24.4224 13.4616C-21.0302 9.46879 -15.0234 8.98117 -11.0305 12.3733C-10.1472 13.1224 -9.41221 14.027 -8.85392 15.0517C-8.51471 15.4121 -8.08362 15.5322 -7.52534 15.4191H-7.5112C-7.50413 15.4191 -6.84691 15.2778 -6.4017 14.7478C-6.28156 14.6065 -6.18968 14.451 -6.11901 14.2814C-5.51126 11.7302 -4.33815 9.42639 -2.63502 7.42645C3.27294 0.472585 13.7461 -0.375446 20.7 5.53251C24.0639 8.40168 26.1203 12.4086 26.4737 16.8113ZM-1.1439 8.6985C-2.65622 10.4794 -3.69506 12.5358 -4.22508 14.8043L-4.23922 14.8609L-4.26748 14.9315C-4.42295 15.3343 -4.63496 15.6948 -4.91057 16.0198C-5.77274 17.0375 -6.91051 17.299 -7.12959 17.3414C-8.4087 17.6099 -9.61008 17.2141 -10.4157 16.246L-10.4722 16.1824L-10.5288 16.0764C-10.9811 15.2283 -11.5747 14.4792 -12.3026 13.8715C-15.4756 11.179 -20.2458 11.5606 -22.9383 14.7337C-25.6308 17.9067 -25.2421 22.6769 -22.0761 25.3694C-21.6027 25.7722 -21.0585 26.1185 -20.4578 26.4082L-19.8713 26.6909C-16.7972 28.0124 -16.2247 29.7509 -16.1258 30.2738C-15.1082 33.1147 -16.7689 35.8214 -17.8501 37.1853L-17.8713 37.2065L-17.9137 37.256C-17.9561 37.2984 -17.9915 37.3478 -18.0339 37.3973L-18.1328 37.5174L-18.1399 37.5316C-18.1681 37.5598 -18.1893 37.5881 -18.2176 37.6164L-18.4013 37.8637C-22.267 43.0084 -21.4472 50.3015 -16.5427 54.471C-11.4192 58.8242 -3.70213 58.2024 0.6511 53.0788C3.66161 49.5383 4.39658 44.6762 2.58038 40.3937L2.11396 39.2912L2.1917 39.2771C1.49914 36.733 2.65104 35.1288 2.90545 34.8108C3.03266 34.6341 3.15986 34.4575 3.3012 34.302C4.59445 32.7826 6.05024 32.4646 7.04668 32.4646H7.12441L7.23042 32.4787C12.3893 33.461 17.7036 31.5883 21.0957 27.5955C23.6186 24.6274 24.8342 20.8465 24.5232 16.9597C24.2052 13.0729 22.3961 9.54653 19.4279 7.02363C13.2938 1.82237 4.06443 2.5644 -1.1439 8.6985Z" fill="#66953F"/>
</g>
</svg>
