<svg width="414" height="896" viewBox="0 0 414 896" fill="none" xmlns="http://www.w3.org/2000/svg">
<g opacity="0.38">
<rect width="414" height="901" fill="#E3E4E8"/>
<path opacity="0.38" d="M607.358 343.595C586.173 343.595 567.913 355.902 559.19 373.732C557.22 377.346 551.741 377.057 551.741 377.057C545.958 377.583 540.53 372.785 538.657 366.853C522.174 311.429 470.875 271 410.097 271C336.013 271 275.962 331.052 275.962 405.136C275.962 479.219 336.013 539.271 410.097 539.271C472.059 539.271 524.181 497.25 539.583 440.152C542.811 429.282 552.511 427.113 552.511 427.113C559.257 425.187 563.537 428.608 565.255 430.437C575.081 442.885 590.268 450.904 607.358 450.904C636.991 450.904 661.012 426.883 661.012 397.257C661.012 367.616 636.991 343.595 607.358 343.595Z" fill="#66953F"/>
<path opacity="0.38" d="M490.919 691.052C477.865 691.052 466.602 698.59 461.16 709.541L460.982 709.445C452.119 724.003 436.147 733.762 417.857 733.762C397.924 733.762 380.738 722.181 372.518 705.41C366.521 696.739 356.539 691.045 345.195 691.045C326.832 691.045 311.948 705.928 311.948 724.292C311.948 742.655 326.832 757.539 345.195 757.539C346.136 757.539 347.054 757.472 347.979 757.398V757.413C349.534 757.272 351.112 757.176 352.704 757.176C380.775 757.176 403.529 779.93 403.529 808.001C403.529 820.952 398.65 832.733 390.667 841.715L390.675 841.722C386.195 847.387 383.507 854.525 383.507 862.307C383.507 880.671 398.39 895.554 416.747 895.554C435.11 895.554 449.994 880.671 449.994 862.307C449.994 853.481 446.536 845.491 440.93 839.538L441.064 839.427C434.444 830.823 430.467 820.093 430.467 808.401C430.467 780.241 453.296 757.413 481.456 757.413C483.463 757.413 485.432 757.561 487.38 757.783L487.469 757.376C488.601 757.494 489.749 757.553 490.912 757.553C509.275 757.553 524.151 742.67 524.151 724.306C524.159 705.943 509.275 691.052 490.919 691.052Z" fill="#BA642A"/>
<path opacity="0.38" d="M417.872 697.961C444.85 697.961 466.721 676.09 466.721 649.112C466.721 622.134 444.85 600.263 417.872 600.263C390.894 600.263 369.023 622.134 369.023 649.112C369.023 676.09 390.894 697.961 417.872 697.961Z" fill="#66953F"/>
<path opacity="0.38" d="M304.884 553.244C293.237 553.244 282.604 557.516 274.407 564.543C266.395 569.675 260.701 564.225 260.701 564.225C250.119 556.82 260.167 545.18 260.167 545.18L260.138 545.173C274.54 530.2 283.411 509.875 283.411 487.453C283.411 441.47 246.143 404.188 200.145 404.188C154.155 404.188 116.887 441.47 116.887 487.453C116.887 502.929 121.123 517.405 128.475 529.823L128.438 529.815C149.342 570.008 110.978 577.709 110.978 577.709L111.089 577.768C65.2988 591.822 32 634.436 32 684.84C32 746.676 82.1222 796.82 143.966 796.82C205.817 796.82 255.939 746.676 255.939 684.84C255.939 661.841 248.994 640.463 237.102 622.677L237.154 622.692C227.365 607.616 240.33 601.004 240.33 601.004C254.881 595.184 258.583 608.409 258.583 608.409L258.753 608.283C262.618 630.282 281.774 647.016 304.877 647.016C330.771 647.016 351.763 626.024 351.763 600.13C351.771 574.236 330.778 553.244 304.884 553.244Z" fill="#66953F"/>
</g>
</svg>
