<svg width="52" height="41" viewBox="0 0 52 41" fill="none" xmlns="http://www.w3.org/2000/svg">
<path d="M37.3513 4.71289C35.9765 4.71289 34.7904 5.5118 34.2244 6.66939C34.0967 6.90424 33.741 6.88557 33.741 6.88557C33.3656 6.91997 33.0128 6.60846 32.891 6.22325C31.8208 2.62471 28.4905 0 24.5451 0C19.7359 0 15.8367 3.89825 15.8367 8.70744C15.8367 13.5166 19.7349 17.4159 24.5451 17.4159C28.5672 17.4159 31.9515 14.688 32.9509 10.9813C33.1602 10.2758 33.7901 10.1353 33.7901 10.1353C34.2274 10.0105 34.5055 10.2325 34.6175 10.3515C35.2552 11.1592 36.2418 11.68 37.3503 11.68C39.2744 11.68 40.8339 10.1205 40.8339 8.19744C40.8339 6.27239 39.2754 4.71289 37.3513 4.71289Z" fill="#66953F"/>
<path d="M29.7916 27.2701C28.9445 27.2701 28.2134 27.7595 27.8597 28.4699L27.8479 28.463C27.272 29.4084 26.2353 30.0422 25.0483 30.0422C23.7541 30.0422 22.6387 29.2905 22.1052 28.2017C21.716 27.6386 21.0675 27.2691 20.3314 27.2691C19.1395 27.2691 18.1735 28.2351 18.1735 29.427C18.1735 30.619 19.1395 31.585 20.3314 31.585C20.3924 31.585 20.4523 31.5811 20.5122 31.5761V31.5771C20.6134 31.5683 20.7157 31.5614 20.8188 31.5614C22.6417 31.5614 24.1186 33.0384 24.1186 34.8612C24.1186 35.7024 23.8012 36.4669 23.2834 37.0496C22.9925 37.4171 22.8176 37.881 22.8176 38.3861C22.8176 39.578 23.7836 40.544 24.9755 40.544C26.1675 40.544 27.1335 39.578 27.1335 38.3861C27.1335 37.8132 26.9094 37.2943 26.5449 36.9081L26.5537 36.9012C26.1243 36.3431 25.8658 35.6464 25.8658 34.8868C25.8658 33.059 27.3477 31.5771 29.1765 31.5771C29.3071 31.5771 29.4349 31.587 29.5607 31.6017L29.5666 31.5752C29.6403 31.583 29.715 31.587 29.7906 31.587C30.9826 31.587 31.9486 30.621 31.9486 29.429C31.9495 28.2361 30.9836 27.2701 29.7916 27.2701Z" fill="#BA642A"/>
<path d="M25.0503 27.7182C26.8016 27.7182 28.2213 26.2985 28.2213 24.5471C28.2213 22.7958 26.8016 21.376 25.0503 21.376C23.2989 21.376 21.8792 22.7958 21.8792 24.5471C21.8792 26.2985 23.2989 27.7182 25.0503 27.7182Z" fill="#66953F"/>
<path d="M42.3689 14.3303C42.3689 15.6137 41.3282 16.6553 40.0448 16.6553C38.7615 16.6553 37.7208 15.6147 37.7208 14.3303C37.7208 13.0469 38.7615 12.0063 40.0448 12.0063C41.3282 12.0063 42.3689 13.0469 42.3689 14.3303Z" fill="#66953F"/>
<path d="M17.7146 18.3229C16.9589 18.3229 16.2681 18.6 15.7365 19.0569C15.2167 19.39 14.8472 19.0363 14.8472 19.0363C14.1603 18.5558 14.8128 17.8001 14.8128 17.8001H14.8108C15.7463 16.8282 16.3222 15.5085 16.3222 14.0532C16.3222 11.0678 13.9028 8.64749 10.9165 8.64749C7.93114 8.64749 5.51082 11.0678 5.51082 14.0532C5.51082 15.0575 5.78596 15.9979 6.26354 16.8037H6.2616C7.61867 19.4126 5.12759 19.9128 5.12759 19.9128L5.13544 19.9168C2.16188 20.8287 0 23.5949 0 26.8672C0 30.8814 3.25364 34.137 7.26884 34.137C11.284 34.137 14.5376 30.8814 14.5376 26.8672C14.5376 25.3735 14.0866 23.986 13.3142 22.8314L13.3181 22.8323C12.6823 21.8536 13.5245 21.4242 13.5245 21.4242C14.4689 21.0468 14.7096 21.9047 14.7096 21.9047L14.7204 21.8968C14.971 23.3247 16.215 24.4115 17.7146 24.4115C19.396 24.4115 20.7579 23.0485 20.7579 21.3672C20.7579 19.6858 19.396 18.3229 17.7146 18.3229Z" fill="#66953F"/>
<path d="M46.1118 15.195C43.9165 15.195 42.0033 16.3978 40.9911 18.1794C40.7867 18.4211 40.3661 18.7425 39.6046 18.6668C39.6046 18.6668 38.7497 18.6865 38.2338 17.5937L38.2298 17.5967C37.4122 15.9645 35.725 14.8432 33.7754 14.8432C31.0249 14.8432 28.7952 17.0729 28.7952 19.8234C28.7952 22.4717 30.8618 24.6365 33.4708 24.7938L33.4648 24.8075C33.4648 24.8075 33.5366 24.8016 33.6565 24.8006C33.6958 24.8016 33.7361 24.8036 33.7764 24.8036C33.7872 24.8036 33.798 24.8026 33.8098 24.8026C34.3669 24.8213 35.4528 24.9736 35.9304 25.8403C35.9304 25.8403 36.4276 26.3375 35.9107 27.728H35.9304C35.8626 27.9884 35.8223 28.2606 35.8223 28.5417C35.8223 30.3203 37.2639 31.7629 39.0435 31.7629C40.8221 31.7629 42.2647 30.3203 42.2647 28.5417C42.2647 28.1221 42.1821 27.7221 42.0357 27.3546C42.0023 27.16 42.0033 26.7915 42.3885 26.4948C42.3885 26.4948 42.8543 26.1145 43.4311 26.3179C44.2359 26.7306 45.1468 26.9655 46.1138 26.9655C49.3654 26.9655 52 24.3299 52 21.0793C51.998 17.8305 49.3635 15.195 46.1118 15.195Z" fill="#66953F"/>
</svg>
