<svg width="311" height="245" viewBox="0 0 311 245" fill="none" xmlns="http://www.w3.org/2000/svg">
<path d="M213.012 21.8854C206.623 21.8854 201.112 25.5955 198.481 30.9693C197.884 32.0588 196.234 31.9704 196.234 31.9704C194.487 32.1324 192.852 30.6822 192.284 28.8934C187.31 12.1904 171.829 0 153.496 0C131.147 0 113.02 18.1016 113.02 40.4286C113.02 62.7557 131.139 80.8647 153.496 80.8647C172.19 80.8647 187.915 68.1957 192.564 50.9849C193.537 47.709 196.462 47.0539 196.462 47.0539C198.496 46.4723 199.785 47.5029 200.309 48.055C203.271 51.8093 207.854 54.2239 213.012 54.2239C221.958 54.2239 229.201 46.9803 229.201 38.0509C229.201 29.1216 221.95 21.8854 213.012 21.8854Z" fill="#66953F"/>
<path d="M177.879 126.616C173.944 126.616 170.539 128.89 168.896 132.188L168.845 132.159C166.17 136.546 161.351 139.491 155.832 139.491C149.819 139.491 144.631 136.001 142.155 130.944C140.35 128.331 137.336 126.616 133.91 126.616C128.369 126.616 123.881 131.099 123.881 136.634C123.881 142.17 128.369 146.653 133.91 146.653C134.19 146.653 134.47 146.631 134.75 146.609V146.616C135.222 146.572 135.693 146.543 136.179 146.543C144.646 146.543 151.514 153.404 151.514 161.862C151.514 165.763 150.04 169.319 147.63 172.02C146.282 173.728 145.464 175.878 145.464 178.226C145.464 183.762 149.951 188.245 155.493 188.245C161.034 188.245 165.521 183.762 165.521 178.226C165.521 175.569 164.475 173.154 162.788 171.365L162.832 171.329C160.835 168.737 159.634 165.498 159.634 161.98C159.634 153.492 166.523 146.609 175.019 146.609C175.624 146.609 176.221 146.653 176.803 146.719L176.832 146.594C177.171 146.631 177.517 146.646 177.871 146.646C183.412 146.646 187.9 142.163 187.9 136.627C187.907 131.106 183.42 126.616 177.879 126.616Z" fill="#BA642A"/>
<path d="M155.839 128.699C163.978 128.699 170.576 122.107 170.576 113.976C170.576 105.845 163.978 99.2534 155.839 99.2534C147.7 99.2534 141.102 105.845 141.102 113.976C141.102 122.107 147.7 128.699 155.839 128.699Z" fill="#66953F"/>
<path d="M236.334 66.5394C236.334 72.5021 231.5 77.3312 225.531 77.3312C219.563 77.3312 214.729 72.4947 214.729 66.5394C214.729 60.5767 219.563 55.7476 225.531 55.7476C231.5 55.7476 236.334 60.5767 236.334 66.5394Z" fill="#66953F"/>
<path d="M121.744 85.0754C118.23 85.0754 115.024 86.3636 112.548 88.4837C110.131 90.0296 108.415 88.388 108.415 88.388C105.224 86.1575 108.252 82.6461 108.252 82.6461H108.245C112.593 78.1336 115.267 72.0016 115.267 65.2512C115.267 51.3897 104.023 40.1563 90.1403 40.1563C76.2652 40.1563 65.0207 51.3971 65.0207 65.2512C65.0207 69.9183 66.2955 74.2836 68.5208 78.0232H68.5134C74.821 90.14 63.2449 92.4588 63.2449 92.4588L63.2817 92.4735C49.4655 96.7063 39.4147 109.552 39.4147 124.746C39.4147 143.385 54.5352 158.498 73.1999 158.498C91.8646 158.498 106.985 143.385 106.985 124.746C106.985 117.811 104.892 111.37 101.304 106.011H101.319C98.3637 101.469 102.276 99.4742 102.276 99.4742C106.668 97.7222 107.781 101.705 107.781 101.705L107.832 101.668C108.997 108.3 114.781 113.343 121.752 113.343C129.562 113.343 135.899 107.012 135.899 99.2092C135.892 91.4061 129.562 85.0754 121.744 85.0754Z" fill="#66953F"/>
<path d="M253.731 70.5514C243.526 70.5514 234.639 76.1386 229.93 84.4128C228.98 85.5391 227.027 87.0261 223.483 86.6728C223.483 86.6728 219.511 86.7685 217.109 81.6891L217.094 81.7038C213.292 74.1216 205.452 68.9171 196.388 68.9171C183.604 68.9171 173.244 79.2672 173.244 92.0392C173.244 104.333 182.852 114.388 194.974 115.117L194.944 115.183C194.944 115.183 195.276 115.154 195.836 115.154C196.02 115.161 196.204 115.169 196.388 115.169C196.44 115.169 196.492 115.169 196.543 115.169C199.13 115.257 204.177 115.964 206.395 119.99C206.395 119.99 208.701 122.294 206.299 128.758H206.388C206.071 129.965 205.887 131.231 205.887 132.534C205.887 140.794 212.592 147.492 220.86 147.492C229.127 147.492 235.833 140.794 235.833 132.534C235.833 130.583 235.45 128.728 234.772 127.02C234.617 126.115 234.624 124.407 236.407 123.031C236.407 123.031 238.574 121.264 241.256 122.213C244.992 124.135 249.229 125.217 253.724 125.217C268.837 125.217 281.076 112.982 281.076 97.8841C281.083 82.7933 268.844 70.5514 253.731 70.5514Z" fill="#66953F"/>
<path d="M8.59181 235.866C7.31704 233.51 6.1528 231.287 5.09172 229.218C4.03064 227.142 3.1243 225.295 2.36533 223.668C1.60636 222.041 1.02424 220.687 0.611596 219.604C0.206321 218.515 0 217.808 0 217.477C0 216.91 0.191584 216.424 0.567384 216.034C0.950552 215.644 1.53267 215.445 2.32112 215.445C2.8885 215.445 3.36009 215.497 3.72852 215.607C4.09695 215.718 4.30327 215.799 4.36222 215.85C4.9075 217.315 5.48962 218.802 6.11596 220.304C6.74229 221.805 7.35388 223.234 7.96548 224.573C8.57708 225.913 9.14446 227.135 9.675 228.232C10.2055 229.329 10.6477 230.234 11.0014 230.934C11.5172 229.955 12.0698 228.806 12.674 227.474C13.2709 226.149 13.8456 224.831 14.4057 223.528C14.9583 222.225 15.4667 221.04 15.9089 219.972C16.3583 218.905 16.6752 218.125 16.8668 217.632C17.1394 216.954 17.4636 216.417 17.8468 216.027C18.23 215.637 18.8268 215.438 19.6374 215.438C20.3963 215.438 21.0153 215.57 21.4869 215.821C21.9585 216.078 22.2238 216.233 22.2827 216.292C22.1206 216.859 21.8406 217.639 21.4501 218.633C21.0595 219.619 20.5806 220.731 20.0279 221.945C19.4679 223.167 18.871 224.441 18.2373 225.766C17.5963 227.091 16.9699 228.387 16.3436 229.653C15.7173 230.911 15.1278 232.089 14.5751 233.171C14.0151 234.254 13.5509 235.152 13.1677 235.858H8.59181V235.866Z" fill="#6D7C50"/>
<path d="M43.1507 234.357C42.9296 234.489 42.5906 234.681 42.1338 234.923C41.6696 235.166 41.0948 235.395 40.4022 235.615C39.7095 235.836 38.9063 236.02 38 236.182C37.0936 236.344 36.0915 236.425 35.0083 236.425C33.4904 236.425 32.0682 236.197 30.7566 235.733C29.4376 235.269 28.2881 234.585 27.2934 233.679C26.306 232.774 25.5249 231.662 24.9502 230.345C24.3828 229.027 24.0954 227.518 24.0954 225.81C24.0954 224.183 24.3754 222.696 24.9281 221.356C25.4807 220.017 26.2544 218.861 27.2492 217.897C28.2366 216.932 29.4082 216.189 30.7493 215.659C32.0904 215.129 33.5641 214.864 35.1631 214.864C36.5705 214.864 37.8231 215.048 38.9063 215.416C39.9895 215.784 40.9106 216.27 41.6548 216.881C42.3991 217.492 42.9664 218.206 43.3422 219.015C43.7254 219.825 43.9096 220.694 43.9096 221.621C43.9096 222.571 43.7328 223.432 43.3791 224.205C43.0254 224.978 42.3991 225.641 41.5075 226.2C40.6085 226.76 39.4074 227.187 37.8821 227.503C36.3642 227.812 34.4336 227.974 32.1051 227.974C31.5598 227.974 31.0514 227.967 30.5798 227.952C30.1082 227.937 29.5924 227.915 29.0545 227.893C29.2682 229.277 29.9461 230.396 31.0661 231.25C32.1935 232.104 33.7999 232.531 35.8926 232.531C36.5999 232.531 37.2484 232.479 37.8452 232.369C38.4421 232.259 38.98 232.126 39.4516 231.964C39.9232 231.802 40.3358 231.64 40.6748 231.478C41.0138 231.316 41.2643 231.191 41.4264 231.11L43.1507 234.357ZM28.8629 224.721C29.4892 224.75 30.0861 224.765 30.6535 224.765C31.2209 224.765 31.7956 224.765 32.363 224.765C33.8588 224.765 35.0599 224.669 35.9884 224.478C36.9094 224.286 37.6316 224.043 38.1474 223.749C38.6632 223.454 39.0021 223.116 39.1642 222.733C39.3263 222.35 39.4074 221.96 39.4074 221.555C39.4074 220.525 38.9948 219.752 38.1695 219.236C37.3442 218.721 36.3199 218.463 35.0968 218.463C34.0946 218.463 33.2104 218.64 32.4514 218.993C31.6924 219.347 31.0514 219.811 30.5356 220.399C30.0198 220.981 29.6219 221.651 29.3345 222.409C29.0471 223.16 28.8924 223.933 28.8629 224.721Z" fill="#6D7C50"/>
<path d="M47.3876 222.726C47.3876 221.423 47.616 220.289 48.0803 219.31C48.5445 218.331 49.1708 217.521 49.974 216.866C50.7772 216.211 51.7204 215.718 52.8035 215.379C53.8867 215.04 55.0657 214.871 56.3478 214.871C58.0279 214.871 59.5385 215.18 60.8648 215.806C62.1912 216.432 63.2522 217.352 64.0407 218.574C64.8291 217.352 65.8755 216.432 67.1724 215.806C68.4766 215.18 69.9503 214.871 71.6083 214.871C72.8536 214.871 74.0252 215.033 75.1084 215.357C76.1915 215.681 77.1274 216.167 77.9158 216.822C78.7042 217.47 79.3232 218.287 79.7874 219.266C80.2517 220.245 80.4801 221.378 80.4801 222.681V235.858H75.8379V224.264C75.8379 222.394 75.4178 221.055 74.5778 220.26C73.7378 219.457 72.5957 219.06 71.1588 219.06C69.7735 219.06 68.6166 219.509 67.6808 220.399C66.745 221.298 66.2734 222.748 66.2734 224.75V235.851H61.6311V224.75C61.6311 222.74 61.1596 221.29 60.2237 220.399C59.2879 219.501 58.1237 219.06 56.7458 219.06C55.331 219.06 54.1962 219.465 53.3267 220.282C52.4572 221.091 52.0225 222.439 52.0225 224.308V235.858H47.3802V222.726H47.3876Z" fill="#6D7C50"/>
<path d="M96.5879 226.59C96.5879 224.691 96.8605 223.02 97.3984 221.57C97.9437 220.12 98.7027 218.898 99.6753 217.911C100.655 216.925 101.834 216.167 103.22 215.651C104.605 215.136 106.138 214.878 107.818 214.878C109.365 214.878 110.787 215.151 112.091 215.688C113.396 216.233 114.53 216.976 115.488 217.926C116.454 218.876 117.205 220.017 117.751 221.342C118.296 222.667 118.561 224.11 118.561 225.655C118.561 227.231 118.296 228.674 117.765 229.984C117.235 231.302 116.505 232.428 115.569 233.378C114.634 234.327 113.536 235.063 112.276 235.593C111.016 236.123 109.638 236.388 108.142 236.388C106.594 236.388 105.224 236.087 104.03 235.49C102.836 234.894 101.901 234.165 101.223 233.297V243.993H96.5805V226.59H96.5879ZM107.501 232.281C108.422 232.281 109.269 232.111 110.043 231.773C110.817 231.434 111.48 230.963 112.04 230.367C112.593 229.77 113.02 229.064 113.322 228.254C113.617 227.437 113.771 226.561 113.771 225.611C113.771 224.691 113.624 223.83 113.322 223.027C113.02 222.225 112.593 221.533 112.04 220.952C111.48 220.37 110.817 219.906 110.043 219.568C109.269 219.229 108.422 219.06 107.501 219.06C106.58 219.06 105.732 219.222 104.959 219.546C104.185 219.869 103.522 220.318 102.962 220.885C102.402 221.452 101.974 222.137 101.657 222.939C101.348 223.742 101.186 224.625 101.186 225.604C101.186 226.554 101.341 227.437 101.657 228.247C101.967 229.056 102.394 229.763 102.94 230.359C103.485 230.956 104.141 231.427 104.914 231.765C105.688 232.119 106.55 232.281 107.501 232.281Z" fill="#6D7C50"/>
<path d="M122.525 222.726C122.525 220.23 123.292 218.301 124.824 216.932C126.357 215.563 128.479 214.878 131.198 214.878C132.908 214.878 134.3 215.114 135.369 215.592C136.445 216.064 136.975 216.792 136.975 217.771C136.975 218.235 136.843 218.677 136.592 219.111C136.334 219.546 136.121 219.818 135.958 219.921C135.494 219.707 134.927 219.501 134.249 219.31C133.571 219.119 132.797 219.023 131.928 219.023C128.752 219.023 127.168 220.701 127.168 224.065V235.858H122.525V222.726Z" fill="#6D7C50"/>
<path d="M149.436 214.878C151.013 214.878 152.479 215.151 153.849 215.688C155.22 216.233 156.406 216.984 157.408 217.948C158.411 218.912 159.199 220.046 159.766 221.364C160.334 222.681 160.621 224.11 160.621 225.655C160.621 227.172 160.334 228.593 159.766 229.903C159.199 231.221 158.411 232.354 157.408 233.319C156.406 234.283 155.22 235.041 153.849 235.593C152.479 236.145 151.005 236.425 149.436 236.425C147.859 236.425 146.392 236.145 145.022 235.593C143.651 235.041 142.465 234.276 141.463 233.319C140.461 232.354 139.672 231.221 139.105 229.903C138.537 228.585 138.25 227.172 138.25 225.655C138.25 224.11 138.537 222.681 139.105 221.364C139.672 220.046 140.461 218.912 141.463 217.948C142.465 216.984 143.651 216.233 145.022 215.688C146.385 215.151 147.859 214.878 149.436 214.878ZM149.436 232.325C150.357 232.325 151.211 232.156 152 231.817C152.788 231.478 153.459 231.007 154.019 230.396C154.572 229.785 155.006 229.078 155.323 228.283C155.633 227.481 155.795 226.612 155.795 225.663C155.795 224.713 155.64 223.83 155.323 222.998C155.014 222.174 154.579 221.459 154.019 220.863C153.459 220.267 152.788 219.803 152 219.457C151.211 219.119 150.357 218.949 149.436 218.949C148.485 218.949 147.623 219.119 146.849 219.457C146.076 219.796 145.412 220.267 144.852 220.863C144.292 221.459 143.865 222.174 143.548 222.998C143.239 223.822 143.077 224.713 143.077 225.663C143.077 226.612 143.231 227.488 143.548 228.283C143.858 229.086 144.292 229.785 144.852 230.396C145.405 231.007 146.076 231.478 146.849 231.817C147.623 232.156 148.485 232.325 149.436 232.325Z" fill="#6D7C50"/>
<path d="M175.926 226.59C175.926 224.691 176.198 223.02 176.736 221.57C177.282 220.12 178.041 218.898 179.013 217.911C179.993 216.925 181.172 216.167 182.558 215.651C183.943 215.136 185.476 214.878 187.156 214.878C188.703 214.878 190.125 215.151 191.429 215.688C192.734 216.233 193.868 216.976 194.826 217.926C195.792 218.876 196.543 220.017 197.088 221.342C197.634 222.667 197.899 224.11 197.899 225.655C197.899 227.231 197.634 228.674 197.103 229.984C196.573 231.302 195.843 232.428 194.907 233.378C193.972 234.327 192.874 235.063 191.614 235.593C190.354 236.123 188.976 236.388 187.48 236.388C185.932 236.388 184.562 236.087 183.368 235.49C182.174 234.894 181.239 234.165 180.561 233.297V243.993H175.918V226.59H175.926ZM186.831 232.281C187.752 232.281 188.6 232.111 189.374 231.773C190.147 231.434 190.81 230.963 191.37 230.367C191.923 229.77 192.35 229.064 192.653 228.254C192.947 227.437 193.102 226.561 193.102 225.611C193.102 224.691 192.955 223.83 192.653 223.027C192.35 222.225 191.923 221.533 191.37 220.952C190.81 220.37 190.147 219.906 189.374 219.568C188.6 219.229 187.752 219.06 186.831 219.06C185.91 219.06 185.063 219.222 184.289 219.546C183.516 219.869 182.852 220.318 182.292 220.885C181.732 221.452 181.305 222.137 180.988 222.939C180.679 223.742 180.516 224.625 180.516 225.604C180.516 226.554 180.671 227.437 180.988 228.247C181.298 229.056 181.725 229.763 182.27 230.359C182.815 230.956 183.471 231.427 184.245 231.765C185.019 232.119 185.881 232.281 186.831 232.281Z" fill="#6D7C50"/>
<path d="M220.255 235.785C219.983 235.836 219.555 235.902 218.973 235.969C218.391 236.035 217.706 236.101 216.917 236.175C216.129 236.241 215.245 236.3 214.272 236.359C213.292 236.41 212.275 236.44 211.222 236.44C209.107 236.44 207.375 236.256 206.034 235.888C204.693 235.52 203.632 235.034 202.858 234.423C202.084 233.812 201.554 233.105 201.274 232.31C200.987 231.508 200.847 230.691 200.847 229.851C200.847 228.74 201.016 227.761 201.355 226.922C201.694 226.082 202.254 225.376 203.028 224.809C203.801 224.242 204.811 223.815 206.064 223.528C207.309 223.241 208.834 223.101 210.625 223.101C211.656 223.101 212.636 223.138 213.557 223.204C214.478 223.27 215.171 223.337 215.635 223.388C215.635 222.439 215.481 221.651 215.164 221.033C214.854 220.407 214.427 219.921 213.882 219.568C213.336 219.214 212.688 218.971 211.929 218.839C211.17 218.706 210.33 218.633 209.401 218.633C207.854 218.633 206.616 218.809 205.68 219.163C204.745 219.516 204.126 219.811 203.831 220.061C203.669 219.928 203.448 219.671 203.16 219.288C202.873 218.905 202.733 218.449 202.733 217.904C202.733 217.521 202.836 217.153 203.035 216.785C203.234 216.417 203.595 216.093 204.111 215.806C204.627 215.519 205.319 215.298 206.189 215.136C207.058 214.974 208.156 214.893 209.483 214.893C211.082 214.893 212.541 215.048 213.86 215.364C215.178 215.673 216.306 216.174 217.256 216.851C218.207 217.528 218.944 218.427 219.474 219.538C220.005 220.65 220.27 221.989 220.27 223.565V235.785H220.255ZM215.657 226.752C215.385 226.701 214.876 226.62 214.132 226.509C213.388 226.399 212.268 226.347 210.772 226.347C208.923 226.347 207.581 226.627 206.741 227.179C205.901 227.739 205.481 228.607 205.481 229.8C205.481 230.286 205.57 230.735 205.747 231.14C205.924 231.545 206.226 231.891 206.66 232.178C207.095 232.465 207.685 232.678 208.429 232.825C209.173 232.973 210.102 233.046 211.214 233.046C212.459 233.046 213.454 233.002 214.184 232.906C214.921 232.811 215.407 232.737 215.65 232.686V226.752H215.657Z" fill="#6D7C50"/>
<path d="M225.016 222.726C225.016 220.23 225.782 218.301 227.315 216.932C228.847 215.563 230.969 214.878 233.688 214.878C235.398 214.878 236.791 215.114 237.859 215.592C238.935 216.064 239.465 216.792 239.465 217.771C239.465 218.235 239.333 218.677 239.082 219.111C238.824 219.546 238.611 219.818 238.449 219.921C237.984 219.707 237.417 219.501 236.739 219.31C236.061 219.119 235.287 219.023 234.418 219.023C231.242 219.023 229.658 220.701 229.658 224.065V235.858H225.016V222.726Z" fill="#6D7C50"/>
<path d="M258.521 233.304C257.843 234.173 256.907 234.901 255.713 235.498C254.52 236.094 253.134 236.396 251.557 236.396C250.062 236.396 248.691 236.131 247.424 235.601C246.163 235.071 245.066 234.335 244.122 233.385C243.187 232.435 242.45 231.302 241.927 229.991C241.396 228.674 241.131 227.231 241.131 225.663C241.131 224.117 241.411 222.681 241.963 221.349C242.516 220.024 243.29 218.883 244.262 217.933C245.242 216.984 246.399 216.24 247.74 215.696C249.081 215.151 250.555 214.886 252.154 214.886C253.812 214.886 255.315 215.121 256.671 215.6C258.027 216.071 259.184 216.792 260.134 217.757C261.085 218.721 261.814 219.943 262.33 221.415C262.846 222.895 263.104 224.625 263.104 226.598V244.007H258.506V233.304H258.521ZM258.521 225.611C258.521 224.632 258.366 223.749 258.049 222.946C257.74 222.144 257.312 221.459 256.767 220.893C256.222 220.326 255.566 219.877 254.792 219.553C254.018 219.229 253.171 219.067 252.25 219.067C251.299 219.067 250.445 219.236 249.686 219.575C248.927 219.914 248.271 220.377 247.711 220.959C247.151 221.54 246.723 222.232 246.429 223.035C246.127 223.837 245.979 224.698 245.979 225.619C245.979 226.568 246.127 227.452 246.429 228.261C246.723 229.071 247.151 229.778 247.711 230.374C248.264 230.97 248.927 231.441 249.686 231.78C250.445 232.119 251.299 232.288 252.25 232.288C253.171 232.288 254.018 232.119 254.792 231.78C255.566 231.441 256.222 230.97 256.767 230.374C257.312 229.778 257.74 229.071 258.049 228.261C258.366 227.444 258.521 226.561 258.521 225.611Z" fill="#6D7C50"/>
<path d="M267.392 217.602C267.392 216.844 267.606 216.292 268.041 215.953C268.476 215.615 269.087 215.445 269.876 215.445C270.362 215.445 270.812 215.504 271.217 215.629C271.622 215.754 271.895 215.843 272.027 215.894V226.59C272.027 228.438 272.462 229.837 273.332 230.801C274.201 231.765 275.527 232.244 277.318 232.244C279.109 232.244 280.442 231.765 281.304 230.801C282.174 229.837 282.609 228.438 282.609 226.59V217.602C282.609 216.844 282.822 216.292 283.257 215.953C283.692 215.615 284.289 215.445 285.048 215.445C285.564 215.445 286.028 215.504 286.433 215.629C286.838 215.754 287.111 215.843 287.244 215.894V227.606C287.244 228.99 287.008 230.227 286.529 231.331C286.057 232.428 285.372 233.355 284.495 234.114C283.611 234.872 282.564 235.446 281.341 235.844C280.118 236.234 278.777 236.432 277.311 236.432C275.844 236.432 274.503 236.234 273.28 235.844C272.057 235.453 271.01 234.872 270.148 234.114C269.279 233.355 268.601 232.428 268.115 231.331C267.628 230.234 267.385 228.99 267.385 227.606V217.602H267.392Z" fill="#6D7C50"/>
<path d="M310.226 234.357C310.005 234.489 309.666 234.681 309.209 234.923C308.745 235.166 308.17 235.395 307.478 235.615C306.785 235.836 305.982 236.02 305.076 236.182C304.169 236.344 303.167 236.425 302.084 236.425C300.566 236.425 299.144 236.197 297.832 235.733C296.513 235.269 295.364 234.585 294.369 233.679C293.382 232.774 292.601 231.662 292.026 230.345C291.458 229.027 291.171 227.518 291.171 225.81C291.171 224.183 291.451 222.696 292.004 221.356C292.556 220.017 293.33 218.861 294.325 217.897C295.312 216.932 296.484 216.189 297.825 215.659C299.166 215.129 300.64 214.864 302.239 214.864C303.646 214.864 304.899 215.048 305.982 215.416C307.065 215.784 307.986 216.27 308.73 216.881C309.475 217.492 310.042 218.206 310.418 219.015C310.801 219.825 310.985 220.694 310.985 221.621C310.985 222.571 310.808 223.432 310.455 224.205C310.101 224.978 309.475 225.641 308.583 226.2C307.684 226.76 306.483 227.187 304.958 227.503C303.44 227.812 301.509 227.974 299.181 227.974C298.635 227.974 298.127 227.967 297.655 227.952C297.184 227.937 296.668 227.915 296.13 227.893C296.344 229.277 297.022 230.396 298.142 231.25C299.269 232.104 300.875 232.531 302.968 232.531C303.676 232.531 304.324 232.479 304.921 232.369C305.518 232.259 306.056 232.126 306.527 231.964C306.999 231.802 307.411 231.64 307.75 231.478C308.089 231.316 308.34 231.191 308.502 231.11L310.226 234.357ZM295.931 224.721C296.557 224.75 297.154 224.765 297.722 224.765C298.289 224.765 298.864 224.765 299.431 224.765C300.927 224.765 302.128 224.669 303.057 224.478C303.978 224.286 304.7 224.043 305.216 223.749C305.731 223.454 306.07 223.116 306.232 222.733C306.395 222.35 306.476 221.96 306.476 221.555C306.476 220.525 306.063 219.752 305.238 219.236C304.412 218.721 303.388 218.463 302.165 218.463C301.163 218.463 300.279 218.64 299.52 218.993C298.761 219.347 298.12 219.811 297.604 220.399C297.088 220.981 296.69 221.651 296.403 222.409C296.115 223.16 295.961 223.933 295.931 224.721Z" fill="#6D7C50"/>
</svg>
